<?xml version="1.0" standalone="no"?>
<!DOCTYPE svg PUBLIC "-//W3C//DTD SVG 20010904//EN"
        "http://www.w3.org/TR/2001/REC-SVG-20010904/DTD/svg10.dtd">
<svg version="1.0" xmlns="http://www.w3.org/2000/svg"
     width="512.000000pt" height="512.000000pt" viewBox="0 0 512.000000 512.000000"
     preserveAspectRatio="xMidYMid meet">
  <metadata>
    Created by potrace 1.16, written by Peter Selinger 2001-2019
  </metadata>
  <g transform="translate(0.000000,512.000000) scale(0.100000,-0.100000)"
     fill="#000000" stroke="none">
    <path d="M2478 4773 c12 -2 32 -2 45 0 12 2 2 4 -23 4 -25 0 -35 -2 -22 -4z"/>
    <path d="M2613 4773 c15 -2 37 -2 50 0 12 2 0 4 -28 4 -27 0 -38 -2 -22 -4z"/>
    <path d="M2315 4763 c-145 -20 -406 -93 -532 -149 -79 -34 -64 -36 20 -2 174
71 445 138 607 151 40 3 39 4 -10 4 -30 0 -68 -2 -85 -4z"/>
    <path d="M2788 4755 c56 -7 127 -19 158 -25 31 -7 58 -10 60 -7 8 8 -171 38
-249 42 -63 4 -59 3 31 -10z"/>
    <path d="M1885 4725 c-39 -17 -21 -18 25 0 19 7 28 14 20 14 -8 0 -28 -6 -45
-14z"/>
    <path d="M2551 4718 c-1 -26 -4 -27 -58 -31 l-58 -3 59 -2 c57 -2 58 -3 54
-27 -3 -14 -1 -28 3 -31 5 -3 9 8 9 25 0 29 1 30 58 34 l57 3 -57 2 c-54 2
-57 3 -61 30 l-4 27 -2 -27z"/>
    <path d="M3065 4710 c11 -5 74 -25 140 -45 66 -20 171 -61 234 -91 63 -30 117
-54 120 -54 15 1 -123 72 -193 100 -108 44 -373 123 -301 90z"/>
    <path d="M1740 4672 c-78 -31 -162 -72 -125 -60 22 7 230 90 234 94 12 11 -23
0 -109 -34z"/>
    <path d="M3360 4682 c8 -5 26 -13 40 -16 17 -5 20 -4 10 2 -8 5 -26 13 -40 16
-17 5 -20 4 -10 -2z"/>
    <path d="M2353 4673 c15 -2 39 -2 55 0 15 2 2 4 -28 4 -30 0 -43 -2 -27 -4z"/>
    <path d="M2698 4673 c12 -2 30 -2 40 0 9 3 -1 5 -23 4 -22 0 -30 -2 -17 -4z"/>
    <path d="M2118 4663 c7 -3 16 -2 19 1 4 3 -2 6 -13 5 -11 0 -14 -3 -6 -6z"/>
    <path d="M2890 4641 c118 -25 176 -39 255 -66 12 -4 10 -1 -6 9 -41 24 -311
87 -364 85 -11 0 41 -13 115 -28z"/>
    <path d="M3065 4660 c11 -5 27 -9 35 -9 9 0 8 4 -5 9 -11 5 -27 9 -35 9 -9 0
-8 -4 5 -9z"/>
    <path d="M2078 4653 c7 -3 16 -2 19 1 4 3 -2 6 -13 5 -11 0 -14 -3 -6 -6z"/>
    <path d="M3440 4650 c8 -5 20 -10 25 -10 6 0 3 5 -5 10 -8 5 -19 10 -25 10 -5
0 -3 -5 5 -10z"/>
    <path d="M2190 4639 c-154 -42 -250 -73 -250 -81 0 -5 7 -5 18 1 9 5 78 25
152 46 74 20 136 38 139 41 7 6 -20 3 -59 -7z"/>
    <path d="M2372 4630 c-18 -4 -35 -10 -38 -13 -3 -3 -1 -29 4 -59 l11 -53 -2
54 -2 55 40 8 c22 5 50 7 62 6 22 -3 22 -5 -14 -55 -20 -29 -34 -56 -30 -59 4
-4 10 2 14 12 4 10 19 37 35 58 15 21 28 43 28 48 0 10 -62 9 -108 -2z"/>
    <path d="M2580 4632 c0 -5 15 -21 32 -38 27 -23 29 -24 10 -3 -12 14 -22 28
-22 32 0 11 52 8 140 -9 45 -8 87 -13 93 -11 17 5 -163 37 -212 37 -23 0 -41
-4 -41 -8z"/>
    <path d="M3200 4632 c8 -5 26 -13 40 -16 17 -5 20 -4 10 2 -8 5 -26 13 -40 16
-17 5 -20 4 -10 -2z"/>
    <path d="M2244 4615 c4 -11 10 -32 13 -48 3 -15 9 -30 14 -33 10 -6 -16 85
-27 94 -4 4 -4 -2 0 -13z"/>
    <path d="M1473 4555 c-62 -29 -113 -56 -113 -59 0 -4 229 101 239 110 15 14
-29 -4 -126 -51z"/>
    <path d="M2297 4589 c4 -13 8 -18 11 -10 2 7 -1 18 -6 23 -8 8 -9 4 -5 -13z"/>
    <path d="M2525 4576 c-16 -29 -17 -37 -5 -51 25 -30 47 -36 61 -17 12 15 12
16 -2 4 -14 -10 -21 -9 -40 7 -24 19 -24 20 -6 51 11 17 17 33 15 36 -3 2 -13
-11 -23 -30z"/>
    <path d="M2690 4605 c0 -5 5 -17 10 -25 5 -8 10 -10 10 -5 0 6 -5 17 -10 25
-5 8 -10 11 -10 5z"/>
    <path d="M3270 4608 c12 -11 240 -116 235 -108 -6 10 -177 94 -215 105 -14 4
-23 5 -20 3z"/>
    <path d="M3580 4605 c0 -2 18 -14 40 -25 22 -11 40 -18 40 -15 0 2 -18 14 -40
25 -22 11 -40 18 -40 15z"/>
    <path d="M2854 4583 c-1 -10 -4 -31 -8 -48 l-6 -30 14 30 c17 33 20 65 8 65
-4 0 -8 -8 -8 -17z"/>
    <path d="M2898 4555 c-9 -25 -12 -45 -8 -45 8 0 33 80 27 86 -2 3 -11 -16 -19
-41z"/>
    <path d="M2190 4581 c0 -21 13 -40 23 -34 6 4 8 0 4 -10 -3 -10 -2 -17 3 -17
13 0 13 12 0 44 -9 25 -30 36 -30 17z"/>
    <path d="M2938 4535 c-9 -25 -12 -45 -8 -45 8 0 33 80 27 86 -2 3 -11 -16 -19
-41z"/>
    <path d="M1604 4515 c-50 -29 -97 -61 -105 -71 -7 -9 21 5 63 32 41 27 93 59
114 71 22 12 35 22 29 22 -5 0 -51 -24 -101 -54z"/>
    <path d="M2080 4559 c-33 -14 -33 -12 -16 -54 16 -38 30 -40 76 -14 20 11 7
11 -24 -1 -23 -8 -28 -6 -41 20 -14 28 -14 31 2 37 9 4 32 7 50 7 18 1 33 4
33 9 0 10 -50 8 -80 -4z"/>
    <path d="M2777 4548 c-4 -12 -4 -24 -2 -27 3 -2 5 1 5 8 0 7 4 10 9 7 5 -4 7
3 4 14 -7 25 -9 25 -16 -2z"/>
    <path d="M2980 4544 c-12 -30 -13 -51 -2 -57 4 -3 7 10 8 29 0 19 3 37 7 40 4
4 27 1 53 -6 45 -13 46 -13 40 -49 -4 -26 -3 -31 4 -16 20 45 12 62 -34 74
-62 15 -65 14 -76 -15z"/>
    <path d="M1495 4496 c-234 -132 -370 -238 -538 -418 -353 -377 -558 -781 -581
-1143 -6 -90 -3 -78 20 85 31 222 136 475 291 703 114 168 151 213 301 368
187 194 309 287 535 408 89 49 109 62 90 60 -5 0 -57 -28 -118 -63z"/>
    <path d="M2560 4556 c0 -2 8 -10 18 -17 15 -13 16 -12 3 4 -13 16 -21 21 -21
13z"/>
    <path d="M2160 4535 c0 -5 5 -17 10 -25 5 -8 10 -10 10 -5 0 6 -5 17 -10 25
-5 8 -10 11 -10 5z"/>
    <path d="M2722 4520 c0 -14 2 -19 5 -12 2 6 2 18 0 25 -3 6 -5 1 -5 -13z"/>
    <path d="M3301 4536 c14 -12 148 -72 143 -64 -4 5 -35 23 -71 39 -59 27 -83
35 -72 25z"/>
    <path d="M1712 4497 c-41 -17 -69 -33 -62 -35 14 -5 82 -140 76 -151 -3 -5
-37 -27 -76 -50 -38 -23 -70 -44 -70 -47 0 -3 15 3 33 13 106 64 127 79 127
92 0 8 -16 43 -35 79 -20 35 -35 66 -33 67 2 2 32 17 68 33 86 40 65 39 -28
-1z"/>
    <path d="M1955 4510 c-3 -5 -1 -10 4 -10 6 0 11 5 11 10 0 6 -2 10 -4 10 -3 0
-8 -4 -11 -10z"/>
    <path d="M2001 4510 c0 -8 4 -24 9 -35 5 -13 9 -14 9 -5 0 8 -4 24 -9 35 -5
13 -9 14 -9 5z"/>
    <path d="M3020 4491 c-6 -12 -7 -21 -1 -21 10 0 24 30 17 37 -2 3 -9 -5 -16
-16z"/>
    <path d="M1891 4491 c-13 -8 -13 -15 -1 -50 22 -67 29 -69 133 -33 51 18 139
43 197 56 58 14 96 25 85 25 -30 1 -211 -44 -291 -73 -39 -14 -76 -26 -81 -26
-15 0 -48 79 -37 89 5 5 18 11 29 14 l20 5 -20 1 c-11 0 -26 -3 -34 -8z"/>
    <path d="M3590 4496 c0 -2 42 -30 93 -61 50 -32 121 -79 157 -104 75 -55 90
-64 90 -58 0 7 -152 114 -230 163 -76 48 -110 66 -110 60z"/>
    <path d="M1324 4474 c-18 -14 -18 -15 4 -4 12 6 22 13 22 15 0 8 -5 6 -26 -11z"/>
    <path d="M1960 4474 c0 -8 5 -12 10 -9 6 4 8 11 5 16 -9 14 -15 11 -15 -7z"/>
    <path d="M3171 4473 c-2 -32 -22 -73 -36 -73 -6 0 -49 11 -95 25 -91 27 -230
56 -264 54 -11 -1 11 -7 50 -14 40 -7 124 -27 187 -44 64 -17 121 -31 126 -31
16 0 43 59 38 83 l-4 22 -2 -22z"/>
    <path d="M1747 4458 c-31 -11 -30 -24 5 -88 21 -38 19 -26 -6 33 -16 37 -16
37 9 47 44 17 53 12 70 -40 9 -27 21 -50 26 -50 5 0 5 7 -1 18 -5 9 -16 34
-24 55 -16 39 -29 44 -79 25z"/>
    <path d="M3221 4454 c0 -11 3 -14 6 -6 3 7 2 16 -1 19 -3 4 -6 -2 -5 -13z"/>
    <path d="M1204 4394 c-106 -79 -328 -301 -440 -440 -186 -232 -326 -478 -413
-727 -22 -65 -41 -124 -40 -130 0 -7 19 42 43 108 82 232 166 397 299 585 187
264 390 476 622 647 17 12 27 23 24 23 -3 0 -46 -30 -95 -66z"/>
    <path d="M1585 4439 c-16 -10 -34 -20 -39 -22 -5 -2 6 -29 24 -60 18 -32 34
-56 37 -54 2 3 -10 28 -26 56 l-30 51 39 20 c22 11 40 23 40 25 0 9 -15 4 -45
-16z"/>
    <path d="M3286 4435 c-3 -9 -6 -22 -5 -28 0 -7 5 -1 10 12 5 13 8 26 5 28 -2
2 -6 -3 -10 -12z"/>
    <path d="M3361 4390 c-18 -33 -30 -60 -28 -60 3 0 21 27 40 60 20 33 32 60 28
60 -5 0 -23 -27 -40 -60z"/>
    <path d="M3480 4384 c-17 -31 -29 -58 -27 -60 2 -2 18 23 36 56 41 76 34 79
-9 4z"/>
    <path d="M3516 4350 c-21 -50 -40 -90 -43 -90 -2 0 -30 14 -63 30 -33 17 -60
28 -60 25 0 -4 153 -86 175 -93 6 -2 -2 5 -17 14 l-26 18 34 69 c43 84 56 117
46 117 -4 0 -24 -41 -46 -90z"/>
    <path d="M2415 4424 c-120 -13 -276 -49 -395 -89 -126 -43 -314 -128 -326
-147 -3 -4 45 17 107 47 259 127 572 196 819 180 289 -19 573 -105 821 -251
42 -24 80 -44 85 -44 13 0 -115 74 -217 126 -151 76 -304 124 -504 159 -91 16
-317 27 -390 19z"/>
    <path d="M1619 4407 c-15 -12 -15 -15 -1 -42 17 -34 52 -81 52 -71 0 3 -12 24
-26 46 -16 25 -24 46 -20 57 6 14 12 9 32 -25 14 -23 27 -42 30 -42 5 0 -32
66 -45 82 -3 4 -13 1 -22 -5z"/>
    <path d="M3443 4408 c-19 -24 -34 -58 -25 -58 4 0 16 16 25 35 17 36 17 45 0
23z"/>
    <path d="M1506 4387 c3 -10 9 -15 12 -12 3 3 0 11 -7 18 -10 9 -11 8 -5 -6z"/>
    <path d="M2393 4383 c9 -2 23 -2 30 0 6 3 -1 5 -18 5 -16 0 -22 -2 -12 -5z"/>
    <path d="M3200 4380 c0 -5 5 -10 11 -10 5 0 7 5 4 10 -3 6 -8 10 -11 10 -2 0
-4 -4 -4 -10z"/>
    <path d="M1406 4372 c6 -4 28 -35 49 -69 21 -35 40 -63 42 -63 5 0 5 0 -41 78
-21 34 -43 62 -49 62 -8 0 -9 -3 -1 -8z"/>
    <path d="M2323 4373 c9 -2 23 -2 30 0 6 3 -1 5 -18 5 -16 0 -22 -2 -12 -5z"/>
    <path d="M1369 4353 c-13 -16 -12 -17 4 -4 16 13 21 21 13 21 -2 0 -10 -8 -17
-17z"/>
    <path d="M2268 4363 c6 -2 18 -2 25 0 6 3 1 5 -13 5 -14 0 -19 -2 -12 -5z"/>
    <path d="M3724 4348 c65 -52 159 -119 162 -115 4 4 -20 22 -121 91 -38 26 -57
37 -41 24z"/>
    <path d="M2218 4353 c6 -2 18 -2 25 0 6 3 1 5 -13 5 -14 0 -19 -2 -12 -5z"/>
    <path d="M2403 4349 c-189 -17 -464 -101 -613 -187 -369 -212 -665 -514 -820
-837 -50 -104 -104 -260 -114 -330 -4 -31 -2 -28 10 15 51 184 97 295 178 434
203 344 600 674 971 806 287 101 597 120 892 54 203 -45 367 -114 543 -228
214 -139 384 -298 515 -481 65 -92 195 -336 195 -367 0 -10 4 -18 10 -18 5 0
6 -7 3 -17 -5 -11 -3 -14 6 -8 10 5 12 2 8 -11 -3 -11 5 -57 18 -104 13 -47
24 -78 24 -70 0 8 -6 40 -14 70 -18 65 -19 80 -4 60 9 -12 10 -12 5 3 -3 10
-6 22 -6 25 0 4 -5 0 -11 -8 -9 -12 -10 -10 -5 9 7 34 -107 269 -199 406 -205
309 -555 578 -917 704 -189 66 -471 99 -675 80z"/>
    <path d="M2178 4343 c7 -3 16 -2 19 1 4 3 -2 6 -13 5 -11 0 -14 -3 -6 -6z"/>
    <path d="M1249 4259 l-74 -71 78 67 c70 61 84 75 74 75 -2 0 -37 -32 -78 -71z"/>
    <path d="M2108 4323 c7 -3 16 -2 19 1 4 3 -2 6 -13 5 -11 0 -14 -3 -6 -6z"/>
    <path d="M3622 4253 c-40 -53 -40 -55 -7 -18 33 36 60 75 53 75 -2 0 -23 -26
-46 -57z"/>
    <path d="M1940 4270 c-8 -5 -10 -10 -5 -10 6 0 17 5 25 10 8 5 11 10 5 10 -5
0 -17 -5 -25 -10z"/>
    <path d="M1434 4239 c14 -17 26 -38 27 -47 0 -11 2 -13 6 -4 5 14 -36 82 -50
82 -5 0 3 -14 17 -31z"/>
    <path d="M3682 4222 c-23 -25 -39 -49 -35 -53 41 -40 201 -169 211 -169 23 0
66 28 102 66 l35 38 -49 -42 c-77 -66 -79 -66 -195 29 l-101 84 42 42 41 42
44 -30 c23 -17 43 -28 43 -25 0 7 -81 66 -89 65 -3 0 -25 -21 -49 -47z"/>
    <path d="M3975 4239 c87 -72 242 -229 315 -320 92 -115 173 -242 252 -398 57
-111 67 -138 49 -127 -5 4 0 -23 12 -59 11 -35 23 -63 25 -60 2 2 -3 25 -12
51 -17 51 -21 78 -7 54 5 -8 32 -83 60 -165 95 -285 134 -607 113 -932 -17
-246 -55 -418 -144 -642 -16 -40 -27 -75 -25 -78 5 -5 67 158 101 264 83 266
107 649 61 977 -54 390 -206 756 -448 1086 -74 101 -303 333 -359 363 -31 17
-31 17 7 -14z"/>
    <path d="M1818 4214 c-38 -19 -68 -37 -68 -39 0 -5 139 62 149 71 14 13 -23
-2 -81 -32z"/>
    <path d="M1317 4202 c-21 -23 -21 -42 -2 -68 13 -17 13 -16 3 13 -10 27 -9 35
7 52 10 12 16 21 13 21 -3 0 -12 -8 -21 -18z"/>
    <path d="M1365 4185 c-16 -13 -27 -26 -25 -29 3 -2 20 9 38 25 39 35 29 38
-13 4z"/>
    <path d="M3775 4186 c17 -14 36 -26 44 -26 17 0 17 1 -34 29 l-40 23 30 -26z"/>
    <path d="M2188 4193 c7 -3 16 -2 19 1 4 3 -2 6 -13 5 -11 0 -14 -3 -6 -6z"/>
    <path d="M3724 4189 c-7 -11 56 -82 65 -73 3 3 -9 17 -27 31 -19 14 -31 31
-28 39 6 17 0 19 -10 3z"/>
    <path d="M3910 4197 c0 -5 9 -20 20 -34 11 -14 20 -21 20 -15 0 12 -39 60 -40
49z"/>
    <path d="M3029 4175 c18 -8 36 -15 40 -15 13 1 -45 29 -59 29 -8 0 0 -6 19
-14z"/>
    <path d="M1053 4088 c-52 -51 -108 -109 -124 -129 l-29 -36 23 -19 22 -19 -18
21 c-18 22 -17 23 107 148 68 69 122 126 119 126 -3 0 -48 -42 -100 -92z"/>
    <path d="M1370 4109 c-36 -36 -78 -74 -93 -83 -29 -19 -31 -18 -142 48 l-30
18 27 -23 c15 -13 47 -35 72 -48 l44 -25 39 27 c62 44 156 132 152 143 -2 5
-33 -21 -69 -57z"/>
    <path d="M3846 4135 c-21 -25 -34 -45 -29 -45 7 0 50 49 67 78 16 26 -3 10
-38 -33z"/>
    <path d="M2557 4117 c-19 -28 -58 -81 -86 -116 -28 -35 -51 -68 -51 -73 0 -9
105 126 149 193 l25 36 53 -43 c52 -42 104 -74 120 -74 4 0 -12 12 -37 26 -25
14 -66 43 -92 65 l-46 39 -35 -53z"/>
    <path d="M1573 4111 c-72 -49 -150 -106 -168 -125 -12 -12 3 -2 139 92 90 62
117 83 104 82 -2 0 -35 -22 -75 -49z"/>
    <path d="M2148 4153 c7 -3 16 -2 19 1 4 3 -2 6 -13 5 -11 0 -14 -3 -6 -6z"/>
    <path d="M3110 4142 c289 -134 485 -266 648 -435 84 -89 202 -255 202 -287 0
-20 -20 -38 -81 -74 l-46 -26 -27 50 c-15 27 -31 52 -37 56 -6 3 4 -19 22 -50
17 -32 30 -58 28 -60 -2 -2 -48 -20 -101 -41 -54 -21 -96 -40 -94 -42 2 -2 48
14 103 35 l101 39 16 -29 c17 -28 17 -29 -25 -79 -23 -27 -69 -70 -103 -94
-33 -24 -74 -58 -91 -76 l-30 -33 40 32 c33 27 41 29 48 16 5 -8 6 -22 3 -30
-3 -8 -2 -13 2 -10 10 6 46 -93 68 -189 9 -38 19 -119 23 -180 8 -104 8 -106
10 -34 1 96 -21 229 -59 339 l-29 85 34 50 c19 28 56 75 83 105 l50 55 17 -40
c69 -163 114 -364 122 -547 l6 -127 -104 -4 -104 -3 103 -2 102 -2 2 -42 1
-43 4 38 c6 54 27 42 34 -19 l6 -49 1 48 c2 51 12 58 50 31 13 -9 26 -14 29
-10 3 3 -11 13 -31 22 l-36 18 -2 85 -2 86 -3 -82 c-3 -72 -6 -83 -22 -83 -16
0 -19 13 -24 133 -7 159 -36 314 -83 445 -63 175 -61 153 -21 205 20 26 38 56
42 67 3 11 10 20 15 20 24 0 108 -186 140 -311 31 -120 42 -211 50 -414 l8
-190 -3 200 c-4 291 -37 448 -135 643 -28 55 -50 105 -50 111 0 7 -4 17 -10
24 -5 7 -38 55 -72 107 -36 54 -101 134 -153 185 -145 145 -395 315 -578 392
-81 34 -120 45 -57 15z m823 -800 c-10 -16 -28 -41 -41 -57 -22 -27 -23 -28
-37 -9 -20 26 -15 34 36 66 57 34 65 34 42 0z m-213 -272 c-16 -22 -25 -28
-30 -20 -5 8 2 22 19 36 34 29 39 23 11 -16z"/>
    <path d="M3592 4144 c10 -10 20 -16 22 -13 3 3 -5 11 -17 18 -21 13 -21 12 -5
-5z"/>
    <path d="M3990 4152 c0 -5 10 -14 23 -21 30 -16 192 -190 257 -277 62 -82 67
-87 50 -54 -7 14 -34 52 -59 85 -25 33 -45 64 -43 68 1 5 -1 6 -6 3 -5 -3 -43
33 -85 79 -76 83 -137 135 -137 117z"/>
    <path d="M1215 4130 c-18 -20 -18 -21 5 -44 18 -20 26 -23 41 -13 10 6 16 13
14 16 -3 2 -11 -2 -19 -8 -11 -10 -17 -7 -30 11 -16 22 -15 24 5 41 12 9 17
17 12 17 -6 0 -18 -9 -28 -20z"/>
    <path d="M2108 4143 c7 -3 16 -2 19 1 4 3 -2 6 -13 5 -11 0 -14 -3 -6 -6z"/>
    <path d="M1942 4095 c-256 -99 -500 -269 -667 -465 -44 -52 -99 -115 -122
-140 -42 -45 -54 -82 -33 -95 6 -4 8 -11 4 -16 -3 -5 -1 -8 4 -7 9 3 122 -96
122 -106 0 -3 -34 11 -75 31 -63 32 -72 39 -62 52 10 14 10 14 -4 4 -9 -7 -19
-10 -23 -6 -4 4 -4 -1 0 -11 6 -15 4 -17 -6 -11 -9 5 -11 4 -6 -4 4 -6 12 -8
18 -5 6 4 36 -6 68 -21 l58 -28 -34 -71 c-54 -119 -96 -300 -114 -496 -6 -63
-12 -115 -13 -116 -1 -1 -28 -4 -59 -7 l-58 -6 -2 77 -2 77 -5 -80 c-6 -79 -6
-80 -36 -87 l-30 -7 33 3 c17 1 32 2 32 0 0 -40 27 -234 42 -304 19 -90 54
-200 64 -200 2 0 17 15 33 32 24 27 36 33 69 33 47 0 75 -21 104 -79 l20 -39
-29 -23 c-15 -13 -36 -21 -45 -19 -61 16 -63 16 -48 6 8 -6 24 -11 34 -11 17
0 15 -5 -14 -35 -19 -19 -37 -35 -40 -35 -6 0 -48 85 -74 150 -3 8 -4 2 -1
-13 3 -16 32 -84 65 -151 46 -96 73 -139 124 -194 36 -40 66 -75 66 -79 0 -10
-74 -123 -81 -123 -18 0 -204 312 -192 323 3 4 1 7 -6 7 -7 0 -10 4 -7 9 4 5
3 11 -2 13 -10 4 -96 236 -113 304 -7 26 -14 43 -17 36 -6 -18 84 -276 132
-378 37 -78 84 -158 170 -291 12 -18 25 -33 29 -33 4 0 3 -9 -3 -20 -6 -11
-17 -20 -24 -20 -19 0 -164 154 -208 220 -65 99 -146 265 -173 356 -40 131
-45 146 -38 99 15 -102 119 -337 205 -464 17 -25 72 -90 121 -143 l89 -97 -18
-31 c-10 -16 -22 -30 -26 -30 -15 0 -128 145 -123 158 3 7 1 10 -4 7 -14 -8
-135 180 -209 323 -35 70 -61 116 -57 102 29 -98 236 -436 333 -541 29 -31 52
-60 52 -63 0 -20 -41 0 -73 36 -34 37 -35 38 -13 7 33 -46 33 -49 -5 -49 -17
0 -39 -5 -50 -10 -16 -9 -26 -1 -76 67 -32 43 -65 89 -73 101 -13 20 -17 21
-34 9 -18 -14 -18 -14 1 -13 15 1 40 -25 87 -88 37 -49 65 -90 64 -91 -10 -6
-101 -55 -104 -55 -2 0 -22 23 -44 51 l-41 52 28 31 28 31 -28 -25 -28 -25
-19 25 c-11 14 -20 21 -20 17 0 -12 75 -119 98 -140 20 -18 20 -18 -4 -42 -29
-29 -30 -39 -4 -65 20 -20 21 -22 3 -75 -13 -39 -23 -55 -35 -55 -10 0 -18 6
-18 13 0 7 -14 26 -31 43 -16 16 -56 65 -88 109 -272 374 -405 762 -441 1285
l-9 135 5 -145 c16 -470 158 -892 427 -1269 33 -46 77 -103 99 -128 21 -24 36
-48 34 -52 -3 -4 5 -25 17 -46 18 -32 31 -42 73 -55 28 -8 66 -26 84 -41 l33
-25 1 -95 c1 -107 17 -148 87 -224 l40 -43 -78 -7 c-120 -9 -325 -34 -355 -42
-38 -11 -36 -27 4 -35 118 -25 594 -56 1038 -68 206 -5 449 -14 540 -20 211
-13 408 -13 635 0 99 6 356 15 570 20 215 6 498 19 629 30 343 28 449 44 418
64 -13 8 -192 33 -297 41 -44 3 -106 8 -137 11 l-58 6 40 46 c50 60 69 107 77
188 l6 65 88 83 c49 46 89 89 89 96 0 7 15 31 33 54 19 23 42 55 51 71 l18 30
-24 -29 c-61 -77 -77 -92 -87 -77 -13 20 -5 33 80 139 72 88 129 177 129 200
0 12 -51 48 -152 106 -58 34 -63 29 -8 -8 37 -24 39 -29 29 -49 -7 -12 -13
-23 -14 -25 -2 -2 -17 4 -35 13 -18 9 -34 14 -36 12 -3 -2 9 -10 26 -17 34
-14 35 -17 15 -44 -15 -19 -15 -19 -40 4 -14 13 -25 19 -25 13 0 -5 11 -20 24
-32 l24 -23 33 45 c19 25 39 52 44 61 9 14 16 11 58 -19 26 -19 47 -39 47 -44
0 -18 -103 -164 -158 -222 l-55 -60 -17 28 c-21 34 -17 42 10 18 11 -10 20
-13 20 -7 0 7 -9 17 -20 24 -11 7 -20 23 -20 36 0 15 -11 29 -32 41 -18 11
-52 33 -74 50 -23 17 -64 37 -92 43 l-50 12 31 41 31 40 -40 -37 c-22 -21 -46
-38 -54 -38 -25 1 -60 25 -80 55 l-18 28 67 81 c78 93 137 179 175 253 40 81
31 77 -14 -5 -50 -92 -112 -180 -182 -256 l-54 -60 -13 32 c-12 29 -11 34 17
69 16 21 44 62 62 90 17 29 35 53 40 53 4 0 7 17 7 37 -2 28 -7 38 -20 39 -12
1 -13 1 -2 -3 17 -5 21 -43 4 -43 -5 0 -7 -4 -4 -10 6 -10 -26 -62 -92 -149
-28 -37 -34 -41 -39 -25 -4 11 -16 32 -28 48 -11 16 -15 26 -8 22 7 -4 12 -3
12 1 0 5 29 39 65 77 36 38 63 71 61 74 -3 2 -21 -15 -42 -37 -20 -23 -39 -39
-42 -37 -8 9 20 69 48 101 29 35 95 159 135 255 15 36 35 83 45 105 40 92 81
260 79 328 -1 18 -7 -8 -15 -58 -8 -49 -24 -123 -36 -163 -21 -73 -21 -73 -34
-44 -6 16 -25 39 -41 50 -33 23 -163 69 -226 79 -26 4 -41 12 -47 27 -8 18 -9
19 -9 2 -1 -14 -6 -17 -23 -13 -47 11 -103 19 -98 14 3 -3 50 -15 105 -26 164
-35 262 -69 300 -102 43 -38 44 -59 8 -150 -26 -67 -27 -68 -47 -54 -12 9 -36
25 -53 36 -18 12 -33 25 -33 31 0 5 15 0 34 -11 18 -12 40 -21 47 -21 8 0 -5
10 -28 22 -24 12 -43 28 -43 35 0 7 -6 10 -15 7 -8 -4 -33 1 -56 10 -22 9 -68
19 -102 21 l-62 5 70 -14 c72 -14 145 -40 145 -52 0 -3 -6 -4 -13 -1 -8 3 -20
1 -28 -4 -10 -6 -8 -9 10 -9 14 0 21 -5 18 -12 -55 -132 -55 -133 -81 -63 -8
22 -15 32 -15 22 -1 -10 19 -59 44 -108 49 -98 55 -137 26 -163 -10 -9 -17
-25 -15 -34 5 -19 -35 -93 -53 -99 -6 -2 -14 5 -18 17 -4 12 -19 36 -35 53
l-28 32 44 59 c42 55 68 96 62 96 -2 0 -28 -34 -58 -75 -30 -41 -58 -75 -62
-75 -14 0 -25 35 -31 97 -4 36 -26 114 -51 182 -25 66 -54 159 -66 207 -27
116 -93 311 -129 382 -36 72 -105 136 -184 172 l-61 27 3 59 c2 50 -3 69 -33
129 -19 39 -50 84 -68 100 l-32 30 33 -39 c50 -59 91 -153 91 -208 0 -57 -12
-66 -48 -36 -16 13 -60 38 -99 57 -47 22 -75 43 -83 59 -6 14 -25 43 -41 63
-30 38 -30 38 -15 84 9 25 16 59 16 74 0 23 6 31 29 39 24 8 31 18 37 49 4 21
15 62 25 92 11 30 19 68 19 85 0 40 -25 76 -52 76 -19 0 -20 3 -12 73 15 132
6 176 -54 255 -14 18 -35 38 -48 45 -12 7 -33 27 -46 46 -29 43 -113 80 -183
80 -65 1 -132 -29 -141 -62 -3 -16 -15 -28 -30 -31 -14 -4 -44 -24 -67 -45
-37 -34 -57 -42 -165 -69 -134 -33 -287 -101 -393 -173 -84 -57 -227 -195
-290 -281 -28 -37 -57 -68 -65 -68 -16 0 -187 41 -193 46 -2 2 10 27 27 54 18
28 27 48 22 45 -5 -3 -21 -26 -36 -50 -21 -36 -29 -43 -43 -36 -24 13 -111
108 -111 122 0 6 9 24 21 40 15 21 29 29 51 29 40 0 129 -24 205 -55 76 -31
96 -32 30 -2 l-49 22 59 66 c168 188 387 343 604 425 107 40 130 57 33 24 -99
-34 -274 -126 -373 -197 -90 -65 -249 -212 -304 -281 l-27 -33 -66 21 c-36 11
-82 20 -101 20 l-35 0 34 42 c189 240 471 446 750 549 73 26 124 48 113 48
-11 0 -71 -20 -133 -44z m742 -169 c54 -17 86 -41 86 -66 0 -10 13 -23 30 -30
38 -16 58 -38 39 -44 -8 -2 -44 -13 -82 -25 -37 -12 -77 -21 -89 -21 -20 0
-21 1 -3 20 10 11 14 20 8 20 -5 0 -18 -9 -28 -20 -14 -15 -21 -17 -32 -9 -10
9 -13 8 -13 -6 0 -14 -3 -13 -19 6 l-20 24 6 -22 c5 -22 4 -23 -28 -9 -59 24
-82 29 -75 17 5 -7 -2 -9 -22 -5 -16 3 -44 -1 -65 -10 -35 -14 -37 -14 -28 2
17 31 75 81 116 99 22 10 40 24 41 31 2 28 5 32 32 46 35 19 86 20 146 2z
m-370 -183 c-34 -80 -37 -96 -31 -184 4 -56 3 -89 -3 -89 -24 0 -50 -41 -50
-79 0 -21 9 -67 20 -101 11 -34 20 -71 20 -81 0 -9 13 -28 29 -41 24 -19 29
-33 34 -84 6 -58 5 -61 -21 -76 -15 -9 -38 -34 -52 -56 -17 -27 -41 -48 -74
-63 -26 -13 -62 -33 -78 -46 -17 -12 -78 -45 -136 -74 -124 -60 -197 -123
-248 -216 -19 -34 -64 -150 -99 -258 -69 -212 -115 -335 -124 -335 -11 0 -72
130 -66 140 3 4 0 10 -5 12 -6 2 -22 32 -35 68 -13 36 -24 59 -24 53 -1 -7 8
-36 19 -65 11 -29 20 -56 20 -60 0 -3 -16 -12 -36 -18 -20 -7 -53 -27 -73 -45
l-37 -34 -12 29 c-18 40 -61 80 -94 87 -15 3 -28 8 -29 12 -2 25 -38 142 -38
125 -1 -11 6 -45 15 -74 12 -41 13 -55 4 -58 -7 -3 -27 -17 -44 -33 l-33 -28
-26 87 c-28 92 -52 222 -61 334 l-5 67 55 7 c30 3 57 5 59 2 2 -2 9 -57 14
-123 11 -115 10 -121 -9 -137 -11 -9 -20 -20 -20 -24 0 -4 9 1 19 10 15 13 20
14 24 4 4 -9 6 -8 6 3 1 22 61 39 162 46 l85 6 12 -34 c6 -19 10 -23 7 -9 -3
14 -13 84 -22 155 -14 112 -15 148 -5 255 7 69 15 139 17 155 l5 30 -10 -30
c-6 -16 -15 -86 -22 -155 -9 -102 -9 -147 3 -242 l14 -118 -60 0 c-34 0 -87
-7 -119 -15 -33 -9 -61 -13 -64 -11 -6 7 -21 230 -15 236 2 3 32 8 66 11 l62
6 -67 1 -68 2 6 63 c12 141 26 230 54 344 29 119 84 263 101 263 5 0 7 -28 4
-62 -4 -60 -2 -55 11 21 l5 33 31 -28 c16 -16 48 -55 69 -86 22 -32 42 -58 45
-58 3 0 -4 13 -15 29 -12 16 -21 32 -21 35 0 3 37 -20 83 -52 97 -68 107 -75
107 -68 0 2 -46 38 -102 80 -125 92 -194 153 -185 162 5 5 124 -20 198 -42 11
-3 29 14 56 53 130 184 334 345 537 424 67 26 241 77 269 79 4 0 0 -17 -9 -37z
m557 17 c25 -14 49 -62 49 -97 l-1 -28 -13 31 c-17 38 -61 74 -92 74 -12 0
-25 4 -28 9 -12 20 53 28 85 11z m-462 -51 c-31 -34 -44 -82 -35 -131 4 -22
-2 -55 -17 -100 l-24 -66 -11 76 c-7 42 -12 94 -12 115 0 77 44 137 101 137
l27 0 -29 -31z m236 11 c101 7 132 5 149 -9 19 -16 20 -64 2 -106 -11 -26 -10
-36 5 -72 l18 -42 -25 11 c-23 11 -36 9 -163 -28 -7 -2 -11 -10 -8 -18 5 -12
10 -150 8 -193 -1 -12 -52 -19 -63 -8 -2 3 -1 35 3 72 18 165 18 161 -2 156
-11 -3 -32 0 -48 7 -39 16 -98 17 -113 2 -10 -10 -6 -11 19 -6 17 3 39 1 50
-5 15 -9 12 -10 -18 -11 -21 0 -47 -9 -63 -21 -33 -26 -33 -18 4 46 27 47 29
57 23 117 -5 62 -4 68 21 93 26 25 31 27 84 19 31 -4 84 -6 117 -4z m247 -141
c5 -39 7 -73 4 -76 -3 -3 -7 5 -9 18 -3 13 -9 49 -15 79 -6 30 -13 64 -17 75
-6 17 -5 17 10 -3 9 -13 21 -55 27 -93z m-85 -105 c22 -20 23 -23 6 -15 -12 6
-35 11 -52 11 -31 0 -42 14 -18 23 24 10 36 7 64 -19z m-509 -46 c18 -18 15
-33 -4 -17 -13 10 -17 10 -25 -2 -7 -12 -9 -12 -9 2 0 29 18 37 38 17z m197
-8 c17 -18 16 -19 -9 -26 -14 -3 -37 -3 -51 0 -37 9 -31 -12 9 -30 30 -15 37
-15 64 -1 27 13 31 13 36 0 10 -26 6 -62 -7 -70 -7 -4 -30 -30 -51 -56 l-39
-48 -16 24 c-72 106 -81 124 -81 154 0 23 5 35 18 39 9 3 28 12 42 19 35 20
64 18 85 -5z m286 4 c10 -13 10 -17 -2 -25 -18 -11 -60 -11 -78 0 -11 7 -7 12
15 25 37 20 49 20 65 0z m193 0 c4 -9 4 -19 1 -22 -3 -3 -5 0 -5 7 0 8 -7 10
-22 5 -20 -6 -21 -5 -9 10 17 20 27 20 35 0z m-126 -51 c2 -22 -6 -43 -33 -77
-20 -27 -41 -59 -47 -72 -6 -13 -15 -24 -19 -24 -4 0 -23 23 -43 50 -25 35
-36 61 -36 85 0 33 1 35 28 29 15 -4 29 -7 32 -6 37 0 52 6 71 27 30 31 43 27
47 -12z m-581 -25 c-3 -8 -6 -5 -6 6 -1 11 2 17 5 13 3 -3 4 -12 1 -19z m47
-55 c4 -29 4 -53 1 -53 -9 0 -45 64 -45 80 1 9 7 5 16 -10 15 -25 15 -25 11
12 -5 57 10 31 17 -29z m650 51 c3 -8 2 -12 -4 -9 -6 3 -10 10 -10 16 0 14 7
11 14 -7z m-28 -71 c-10 -19 -15 -22 -16 -11 0 9 5 20 10 23 6 3 11 16 11 28
1 16 3 17 6 5 2 -9 -3 -29 -11 -45z m-50 -11 c-3 -10 -10 -53 -16 -95 -11 -89
-48 -184 -59 -154 -5 14 -11 8 -30 -29 -16 -34 -25 -44 -31 -34 -6 9 -12 1
-19 -27 -6 -22 -19 -47 -28 -54 -14 -12 -15 -11 -10 11 4 14 -6 -2 -23 -35
-24 -49 -29 -55 -30 -33 0 42 -16 41 -29 -2 -11 -38 -31 -55 -31 -27 0 6 -15
37 -32 67 -23 40 -33 50 -36 37 -3 -14 -11 -6 -34 30 -17 26 -37 62 -44 78
l-13 30 -1 -30 c-1 -28 -3 -25 -31 29 -19 35 -29 68 -26 82 2 13 1 24 -3 24
-4 0 -7 28 -8 63 l-2 62 20 -35 c10 -19 19 -30 20 -25 1 18 40 -39 40 -60 1
-15 4 -12 14 11 16 36 61 74 87 74 23 0 69 -21 69 -31 0 -4 -14 -10 -30 -14
-17 -4 -49 -18 -70 -33 -41 -26 -50 -51 -30 -82 7 -11 10 -8 10 16 l0 31 37
-34 c35 -34 37 -34 45 -14 5 14 16 21 33 21 17 0 24 -4 19 -11 -4 -7 0 -9 14
-5 16 5 23 -1 39 -33 l20 -39 21 44 c22 44 36 54 45 32 3 -7 6 1 6 19 1 34
-27 56 -103 84 -42 15 -42 30 -1 41 24 6 37 2 66 -18 20 -13 42 -37 50 -52
l13 -27 4 30 c4 35 21 58 37 51 6 -2 22 16 36 40 25 46 34 56 25 26z m-336 -2
c0 -5 -4 -10 -10 -10 -5 0 -10 5 -10 10 0 6 5 10 10 10 6 0 10 -4 10 -10z
m127 -6 c-3 -3 -12 -4 -19 -1 -8 3 -5 6 6 6 11 1 17 -2 13 -5z m-17 -124 c0
-13 -90 -13 -110 0 -11 7 3 10 48 10 35 0 62 -4 62 -10z m-292 -177 c6 -16 16
-75 22 -133 6 -58 19 -163 30 -235 27 -172 40 -370 40 -591 0 -216 10 -259 74
-331 l44 -48 -20 -38 -19 -38 -29 21 c-34 24 -75 72 -95 111 -26 50 -55 192
-75 375 -23 202 -20 180 -60 408 -34 194 -39 331 -14 417 16 53 56 109 80 109
6 0 16 -12 22 -27z m554 -101 c18 -40 20 -59 15 -156 -6 -117 -68 -458 -111
-608 -13 -46 -45 -160 -70 -255 -66 -250 -116 -339 -240 -428 -88 -63 -182
-104 -273 -120 -80 -15 -211 -19 -250 -9 l-21 6 24 51 c13 29 24 58 24 65 0
19 14 14 41 -14 13 -14 33 -30 44 -36 12 -6 5 6 -16 28 -61 65 -82 119 -26 68
59 -55 75 -62 44 -21 -28 38 -57 97 -57 118 0 6 19 -5 41 -26 63 -57 140 -88
230 -93 101 -6 161 14 216 71 73 75 104 158 162 432 16 77 46 206 65 287 67
280 78 346 83 508 5 195 7 204 34 189 12 -6 30 -31 41 -57z m-418 -59 c26 -34
56 -69 69 -78 29 -20 67 -19 97 5 14 11 28 20 32 20 11 0 -29 -64 -52 -85 -18
-16 -21 -16 -44 -2 -14 9 -37 33 -52 52 -34 45 -44 38 -14 -9 26 -43 56 -66
87 -66 32 0 122 42 161 74 27 23 32 25 32 10 0 -19 -49 -68 -133 -132 -66 -52
-71 -51 -165 21 -37 28 -60 43 -52 32 26 -32 133 -105 155 -105 11 0 56 27
100 60 57 42 81 55 83 45 6 -26 -17 -153 -54 -308 -33 -136 -39 -151 -73 -184
l-36 -35 -3 84 c-2 45 2 109 8 141 6 33 9 61 7 63 -2 3 -11 -28 -20 -68 l-15
-73 -2 50 c-2 28 -8 -14 -14 -94 l-11 -144 -37 -30 c-20 -16 -41 -26 -47 -23
-6 4 -11 37 -11 74 0 110 -20 338 -41 481 -11 73 -19 135 -17 137 2 2 21 -8
41 -21 47 -33 57 -32 25 3 -46 48 -68 94 -68 142 0 24 4 40 8 35 5 -6 30 -38
56 -72z m-294 26 c-6 -18 -9 -61 -9 -94 l2 -60 8 68 c4 38 9 71 12 73 2 2 7
-45 10 -105 4 -60 16 -169 27 -242 11 -74 36 -249 55 -389 19 -140 37 -265 41
-277 5 -17 -3 -28 -43 -57 -89 -66 -150 -71 -204 -16 l-29 29 30 47 c30 48 70
144 70 167 -1 7 -12 -10 -27 -38 -27 -54 -60 -95 -76 -95 -6 0 -7 46 -3 123
17 311 16 296 5 247 -6 -25 -22 -83 -37 -130 l-26 -85 -12 160 c-13 164 -33
319 -41 312 -2 -3 1 -63 7 -133 6 -71 10 -194 8 -274 l-3 -145 -42 110 c-53
140 -69 195 -93 325 -26 147 -39 174 -39 89 -1 -74 18 -153 91 -384 45 -142
51 -173 55 -270 5 -129 -11 -198 -70 -287 -63 -94 -64 -95 -127 -42 -121 99
-226 139 -347 132 -40 -3 -73 -2 -73 3 0 19 65 59 114 69 70 14 188 -7 251
-44 11 -7 38 -23 60 -36 l40 -23 -28 30 c-61 66 -233 117 -323 96 -34 -8 -44
-7 -44 3 0 70 124 106 246 69 43 -12 47 -12 29 1 -32 24 -96 37 -157 31 -71
-6 -75 6 -19 63 44 46 69 110 156 400 65 214 117 330 175 388 24 23 87 65 148
96 59 30 136 73 172 95 36 22 66 38 67 37 2 -1 -2 -18 -7 -37z m784 -159 c1
-63 -2 -158 -6 -210 -5 -77 -5 -88 4 -55 6 22 12 124 12 227 1 104 2 188 4
188 8 0 71 -36 97 -56 17 -12 65 -39 107 -59 86 -40 138 -91 170 -163 35 -80
87 -242 119 -367 17 -66 48 -167 70 -224 24 -64 39 -122 39 -149 0 -28 7 -54
21 -73 l20 -29 -53 -1 -53 -1 50 -12 c64 -16 112 -41 125 -66 10 -19 9 -19
-31 -5 -61 22 -158 19 -225 -6 -55 -21 -152 -103 -179 -152 -9 -16 -13 -13
-38 25 -42 66 -61 140 -54 223 6 75 98 552 122 632 30 98 11 91 -26 -11 l-18
-51 6 80 c3 44 3 78 0 75 -3 -3 -15 -59 -27 -125 -26 -144 -62 -290 -90 -365
l-21 -55 6 75 c3 41 8 95 10 120 l5 45 -13 -35 c-12 -32 -14 -15 -21 180 -5
118 -11 238 -15 265 -11 83 -35 -352 -27 -497 10 -188 -7 -406 -38 -498 -14
-41 -23 -64 -21 -50 17 80 25 227 25 474 0 154 -2 277 -4 275 -8 -8 -35 -268
-46 -444 -14 -218 -35 -376 -53 -412 -19 -36 -51 -65 -107 -98 l-45 -26 35 7
c57 11 111 43 179 108 56 52 62 56 44 26 -12 -19 -46 -55 -76 -80 l-56 -45 47
-4 47 -3 -90 -30 c-72 -23 -125 -32 -260 -43 -104 -8 -213 -24 -282 -40 -102
-24 -119 -25 -201 -16 -74 8 -104 17 -169 51 -43 22 -69 38 -58 36 11 -3 56
-14 100 -25 87 -22 204 -38 194 -27 -4 4 -40 20 -80 36 l-74 29 55 0 c139 2
292 74 416 196 103 101 139 170 194 376 23 85 52 190 65 234 49 162 134 633
136 751 l1 59 15 -35 c11 -25 16 -69 17 -150z m-334 -715 c-35 -174 -59 -255
-75 -255 -31 0 -77 77 -94 160 l-12 54 103 97 c56 54 104 97 105 95 2 -1 -10
-69 -27 -151z m-1205 75 c19 -38 35 -74 35 -80 0 -6 -11 -26 -25 -44 -14 -18
-32 -57 -41 -86 -8 -29 -24 -62 -35 -73 -10 -11 -19 -30 -19 -41 0 -11 -16
-34 -34 -51 l-35 -32 -53 57 c-48 51 -107 139 -123 181 -4 12 16 35 73 82 44
37 86 77 95 90 15 24 90 67 114 67 7 0 29 -31 48 -70z m2507 -22 c27 -18 48
-37 48 -42 0 -14 -93 -186 -107 -198 -10 -8 -13 -5 -13 11 0 12 -12 44 -26 72
l-25 51 29 -7 c40 -8 62 15 61 63 l-1 37 -7 -35 c-12 -59 -27 -72 -61 -50 -12
7 -10 18 15 69 16 34 31 61 34 61 3 0 27 -15 53 -32z m-1573 -310 c9 -29 33
-62 76 -105 l63 -63 -31 -24 c-46 -34 -91 -46 -171 -46 -58 0 -82 5 -131 29
-67 32 -119 80 -113 106 2 12 21 22 58 32 66 16 165 62 200 91 14 12 28 21 31
22 3 0 11 -19 18 -42z m-253 -40 c-18 -12 -63 -9 -74 5 -6 6 -13 24 -17 39
l-7 28 55 -33 c33 -19 50 -35 43 -39z m1564 -73 c35 -17 100 -73 100 -86 0 -4
-28 5 -62 18 -53 22 -72 25 -132 20 -83 -7 -156 -40 -206 -93 -36 -38 -28 -37
25 2 17 13 57 35 89 50 78 35 179 32 243 -9 47 -30 123 -129 83 -107 -14 7
-46 10 -80 8 -74 -5 -130 -41 -172 -109 l-31 -49 -71 38 c-39 20 -100 64 -135
97 l-63 61 52 57 c49 53 115 97 180 118 38 13 142 4 180 -16z m-1733 -7 c-3
-8 -6 -5 -6 6 -1 11 2 17 5 13 3 -3 4 -12 1 -19z m-419 -30 c56 -21 232 -133
232 -148 0 -21 -73 -63 -238 -136 l-43 -19 -58 57 c-46 44 -72 61 -116 73 -32
10 -70 14 -86 11 -16 -3 -29 -2 -29 3 0 18 62 60 98 67 53 9 76 24 27 18 -22
-3 -52 -10 -67 -14 -35 -11 -35 -6 -2 37 63 83 152 99 282 51z m408 -37 c-9
-66 -41 -157 -71 -203 -23 -34 -30 -38 -68 -38 -57 0 -78 14 -46 30 74 40 179
182 179 243 0 9 3 17 6 17 4 0 4 -22 0 -49z m1307 -159 c55 -57 118 -101 186
-128 54 -22 54 -23 26 -29 -17 -4 -50 -13 -75 -21 -37 -11 -39 -13 -10 -8 137
21 160 18 256 -28 l90 -43 -159 -3 -160 -2 -34 40 c-19 22 -48 47 -64 55 -85
44 -133 124 -145 243 l-6 57 27 -45 c14 -25 45 -65 68 -88z m-1956 -13 c72
-35 130 -132 97 -160 -13 -10 -23 -4 -60 38 -45 53 -112 93 -155 93 l-24 1 28
24 c34 30 58 31 114 4z m2564 -11 c24 -17 39 -33 34 -34 -107 -28 -126 -37
-169 -80 -25 -25 -50 -43 -56 -39 -16 10 -12 73 7 112 20 42 66 73 109 73 19
0 48 -12 75 -32z m-2716 -49 c22 -6 49 -18 60 -27 12 -10 8 -5 -7 11 -31 30
-22 35 21 12 46 -23 83 -73 79 -108 -5 -46 -25 -44 -38 2 -6 22 -15 43 -21 47
-8 4 -8 0 0 -14 6 -11 11 -38 11 -59 l0 -39 -97 -50 c-54 -27 -103 -48 -110
-48 -7 1 -11 -3 -10 -9 3 -15 -43 -36 -97 -43 -45 -7 -46 -6 -48 22 -3 64 8
118 23 109 10 -7 9 -46 -2 -55 -4 -3 -3 -15 2 -28 10 -27 29 -21 29 9 0 11 11
24 25 31 26 12 36 32 11 22 -17 -7 -27 8 -17 25 7 10 16 9 46 -3 40 -17 60
-15 28 3 -47 27 -47 26 -9 75 20 26 36 51 36 56 0 5 -15 4 -32 -2 -18 -6 -47
-12 -63 -13 -17 -1 -44 -9 -62 -18 -18 -10 -44 -17 -58 -17 -50 0 -24 33 60
76 66 34 91 42 140 43 33 0 78 -4 100 -10z m2937 -29 c24 -11 67 -34 96 -51
43 -25 51 -33 41 -45 -17 -20 -41 -17 -81 10 -19 12 -54 25 -79 28 -24 3 -53
9 -64 13 -20 7 21 -34 85 -85 32 -25 26 -39 -8 -21 -15 8 -30 7 -59 -4 -21 -9
-27 -13 -13 -11 13 3 46 -2 72 -12 38 -13 48 -21 48 -39 0 -33 -17 -37 -36 -8
-13 20 -24 25 -47 23 -17 -2 -32 -10 -34 -18 -4 -12 -3 -13 5 -1 15 21 42 5
42 -23 0 -31 16 -42 36 -25 13 11 18 10 25 -4 13 -23 26 -21 34 3 3 11 13 20
21 20 21 0 29 -27 13 -46 -11 -13 -26 -15 -79 -11 -59 6 -68 10 -95 41 -27 32
-123 86 -152 86 -22 0 -44 46 -38 76 5 22 4 25 -4 14 -6 -8 -11 -23 -11 -32 0
-25 -17 -22 -36 6 -14 23 -14 28 0 58 9 19 30 42 47 52 67 40 197 43 271 6z
m-2317 -5 c60 -11 112 -30 210 -79 134 -66 197 -91 162 -63 -15 13 -9 14 50
10 48 -4 106 2 198 21 72 14 191 30 265 36 83 7 180 22 252 40 151 39 169 38
83 -3 -39 -19 -114 -55 -168 -81 l-99 -48 -136 4 c-75 3 -146 8 -157 13 -18 8
-18 7 -7 -8 8 -9 30 -22 50 -29 36 -13 35 -13 -58 -19 -52 -4 -120 -10 -150
-14 -54 -7 -59 -6 -165 50 -169 88 -195 95 -388 105 -155 7 -188 12 -176 25
12 12 116 54 134 54 11 0 56 -6 100 -14z m1469 -56 c54 -34 56 -43 5 -29 -51
15 -77 12 -144 -15 -37 -15 -93 -27 -136 -30 l-74 -5 109 55 c132 67 168 70
240 24z m-2294 -37 c0 -13 -12 -22 -22 -16 -10 6 -1 24 13 24 5 0 9 -4 9 -8z
m674 -12 c19 -18 -6 -30 -47 -24 -51 8 -53 10 -38 28 13 15 66 12 85 -4z m261
-5 c62 -18 298 -144 270 -145 -35 0 -198 29 -252 45 -29 9 -57 24 -62 34 -8
15 -27 19 -106 24 -53 3 -100 8 -103 11 -12 12 25 37 69 45 51 11 113 6 184
-14z m-368 -14 c16 -22 -10 -29 -107 -30 l-75 0 53 28 c59 30 108 31 129 2z
m1763 6 c49 -15 75 -28 75 -37 0 -12 -13 -14 -66 -12 -52 3 -86 -3 -165 -27
-54 -17 -123 -34 -152 -38 -34 -4 -69 -17 -100 -37 -41 -27 -252 -109 -252
-99 0 14 67 97 102 128 68 58 104 72 203 80 94 7 172 25 215 50 34 20 53 19
140 -8z m-2360 -2 c10 -12 10 -15 -4 -15 -9 0 -16 7 -16 15 0 8 2 15 4 15 2 0
9 -7 16 -15z m-51 -74 c-9 -32 -10 -44 -1 -53 16 -16 15 -51 0 -46 -35 12 -44
89 -16 141 18 35 31 4 17 -42z m3318 9 c7 -24 10 -46 8 -49 -11 -10 -34 25
-41 63 -10 55 16 44 33 -14z m57 18 c9 -13 16 -43 16 -69 0 -39 -4 -47 -24
-57 -24 -11 -24 -10 -14 19 10 29 8 59 -7 107 -9 29 9 29 29 0z m-2534 -33
c167 -40 258 -55 419 -70 96 -10 192 -15 213 -12 32 4 37 3 28 -8 -7 -8 -9
-19 -6 -24 20 -31 -122 -183 -237 -255 -184 -115 -395 -177 -661 -195 l-111
-7 90 -8 c58 -6 122 -5 185 3 164 20 406 113 550 211 91 62 188 177 231 275
18 41 23 45 54 45 50 0 46 -19 -33 -151 -78 -130 -97 -147 -292 -263 -222
-132 -318 -172 -475 -196 -135 -21 -320 7 -432 63 -69 35 -144 106 -178 169
-26 46 -30 63 -30 133 0 59 5 89 19 115 55 104 137 163 259 186 90 17 316 11
407 -11z m2075 0 c98 -18 141 -42 137 -76 -4 -36 32 -85 77 -109 58 -29 76
-62 75 -135 -2 -154 -135 -279 -353 -330 -88 -21 -263 -24 -361 -6 -80 15
-222 52 -217 57 2 2 35 -3 73 -11 38 -8 96 -15 129 -14 l60 0 -125 44 c-218
78 -416 184 -512 273 -27 25 -48 48 -48 52 0 4 12 12 26 19 24 10 31 6 107
-55 176 -141 411 -266 550 -290 79 -15 169 -13 234 5 21 6 3 9 -66 14 -84 6
-278 44 -269 52 2 2 51 -1 109 -6 69 -7 129 -7 175 -1 l69 9 -65 2 c-157 3
-394 53 -530 109 -66 28 -172 95 -239 150 l-33 28 64 42 64 42 108 0 c114 0
354 -30 468 -59 78 -20 81 -11 5 17 -76 29 -231 52 -397 60 l-145 7 83 29 c55
18 117 31 181 36 59 5 110 14 131 25 64 33 308 45 435 20z m-1092 -17 c-5 -7
-37 -50 -71 -94 -34 -45 -78 -95 -99 -111 -42 -33 -133 -88 -133 -80 0 3 16
29 36 58 48 71 94 164 94 188 0 21 1 21 120 40 30 5 57 9 59 10 2 0 -1 -5 -6
-11z m-1698 -145 c-9 -39 -10 -39 -45 -10 l-30 26 37 4 c21 2 40 4 42 5 2 1 0
-10 -4 -25z m3143 -20 l10 -28 1 28 c1 24 5 27 37 27 l35 0 -42 -50 c-23 -27
-45 -50 -48 -50 -3 0 -11 15 -17 33 -6 17 -14 40 -19 50 -5 13 -2 17 13 17 13
0 24 -10 30 -27z m-1535 -210 c8 -82 40 -200 58 -218 8 -7 25 -16 39 -19 22
-6 23 -5 9 6 -24 20 -40 56 -60 133 -29 110 -24 115 32 39 68 -92 86 -111 139
-147 44 -30 43 -29 -21 40 -44 47 -72 86 -83 119 -9 26 -16 51 -16 55 0 5 62
-33 138 -84 120 -80 240 -148 307 -173 29 -11 -74 -29 -275 -49 -203 -21 -499
-16 -710 11 -141 18 -144 18 -105 30 22 7 52 13 68 13 93 3 250 98 340 208 33
40 61 73 62 73 1 0 -2 -26 -6 -57 -4 -32 -9 -101 -12 -153 -8 -125 9 -86 28
67 13 104 34 173 54 173 4 0 11 -30 14 -67z m-194 -34 c-37 -70 -187 -172
-274 -186 l-40 -6 39 34 c29 25 257 169 284 178 1 1 -2 -9 -9 -20z m-333 -153
c-29 -24 -154 -67 -191 -65 -16 0 196 87 215 88 3 0 -8 -10 -24 -23z"/>
    <path d="M1794 3218 l-19 -23 23 19 c21 18 27 26 19 26 -2 0 -12 -10 -23 -22z"/>
    <path d="M2082 3225 c-29 -7 -88 -30 -130 -51 -91 -46 -211 -160 -255 -241
-38 -71 -29 -67 17 6 87 142 255 257 416 286 44 8 60 13 40 13 -19 0 -59 -5
-88 -13z"/>
    <path d="M1445 3200 c-3 -5 -1 -10 4 -10 6 0 11 5 11 10 0 6 -2 10 -4 10 -3 0
-8 -4 -11 -10z"/>
    <path d="M1758 3173 c-53 -59 -170 -349 -182 -448 l-6 -50 15 58 c21 81 93
283 120 337 13 25 35 62 49 83 27 40 29 48 4 20z"/>
    <path d="M1361 2964 c0 -11 3 -14 6 -6 3 7 2 16 -1 19 -3 4 -6 -2 -5 -13z"/>
    <path d="M1351 2924 c0 -11 3 -14 6 -6 3 7 2 16 -1 19 -3 4 -6 -2 -5 -13z"/>
    <path d="M1563 2595 c0 -44 2 -61 4 -37 2 23 2 59 0 80 -2 20 -4 1 -4 -43z"/>
    <path d="M2685 3568 c-22 -5 -74 -8 -115 -5 -68 4 -72 3 -45 -9 17 -7 45 -13
63 -14 39 0 123 19 137 31 5 5 7 9 5 8 -3 -1 -23 -5 -45 -11z"/>
    <path d="M2370 3105 c0 -5 5 -17 10 -25 5 -8 10 -10 10 -5 0 6 -5 17 -10 25
-5 8 -10 11 -10 5z"/>
    <path d="M1695 2057 c6 -66 24 -133 64 -235 l21 -52 -40 20 c-38 19 -36 16 37
-59 l78 -80 3 36 c3 29 -3 42 -27 67 -40 41 -99 178 -122 285 l-19 86 5 -68z"/>
    <path d="M1845 2015 c3 -16 8 -63 12 -104 4 -54 8 -69 14 -53 9 23 -5 126 -21
164 -9 21 -10 20 -5 -7z"/>
    <path d="M3478 2055 c6 -192 -4 -221 -114 -320 -110 -99 -112 -123 -3 -28 128
110 144 142 143 283 -1 58 -8 130 -16 160 -15 53 -15 51 -10 -95z"/>
    <path d="M2917 1746 c-5 -48 -6 -90 -3 -93 6 -7 18 117 14 152 -2 17 -7 -10
-11 -59z"/>
    <path d="M2743 1441 c-18 -37 -51 -90 -75 -117 -70 -80 -77 -91 -36 -61 46 35
102 116 129 186 11 29 19 55 17 56 -2 2 -17 -27 -35 -64z"/>
    <path d="M1256 1932 c-11 -37 -16 -80 -14 -122 l4 -65 3 75 c1 41 8 90 15 109
l12 33 53 -80 c29 -45 60 -87 69 -94 13 -11 15 -11 7 2 -4 8 -16 24 -26 35 -9
11 -37 52 -62 92 l-44 72 -17 -57z"/>
    <path d="M1252 1725 c0 -11 4 -31 8 -45 6 -20 8 -21 8 -5 0 11 -4 31 -8 45 -6
20 -8 21 -8 5z"/>
    <path d="M1129 1103 c-13 -16 -12 -17 4 -4 9 7 17 15 17 17 0 8 -8 3 -21 -13z"/>
    <path d="M1002 1015 c-13 -16 -18 -33 -14 -43 6 -15 7 -14 10 3 2 11 11 28 20
38 8 9 13 20 10 23 -3 3 -15 -7 -26 -21z"/>
    <path d="M1545 919 c-64 -10 -130 -36 -147 -56 -12 -15 -10 -15 18 0 54 28
151 38 429 45 182 4 249 9 205 13 -92 9 -446 8 -505 -2z"/>
    <path d="M2279 855 c-87 -80 -209 -142 -424 -215 -200 -68 -297 -89 -425 -91
-98 -1 -102 -2 -50 -10 67 -11 208 -3 310 18 136 27 375 128 491 207 45 30
185 156 174 156 -3 0 -37 -29 -76 -65z"/>
    <path d="M3695 1017 c44 -13 98 -31 120 -40 33 -14 36 -14 20 -2 -23 18 -124
51 -181 59 -22 4 -3 -4 41 -17z"/>
    <path d="M3475 930 c61 -11 139 -29 175 -39 74 -23 90 -21 29 3 -55 22 -157
43 -244 50 -60 5 -55 3 40 -14z"/>
    <path d="M3012 711 c55 -31 194 -68 318 -86 151 -21 189 -18 60 5 -91 16 -335
75 -395 95 -11 3 -4 -3 17 -14z"/>
    <path d="M1426 4060 c-54 -39 -117 -86 -140 -106 -23 -19 -27 -26 -11 -14 201
142 270 193 253 189 -2 0 -48 -31 -102 -69z"/>
    <path d="M3875 4083 l-18 -28 27 24 c28 26 31 31 17 31 -5 0 -17 -12 -26 -27z"/>
    <path d="M3560 4096 c0 -2 24 -19 54 -39 30 -20 87 -64 126 -98 39 -33 73 -59
75 -57 5 5 -63 63 -164 140 -68 52 -91 66 -91 54z"/>
    <path d="M2850 4066 c0 -2 8 -10 18 -17 15 -13 16 -12 3 4 -13 16 -21 21 -21
13z"/>
    <path d="M2788 4033 c7 -3 16 -2 19 1 4 3 -2 6 -13 5 -11 0 -14 -3 -6 -6z"/>
    <path d="M2905 3995 c40 -56 51 -66 29 -27 -10 18 -28 41 -38 50 -12 10 -8 0
9 -23z"/>
    <path d="M2148 4013 c6 -2 18 -2 25 0 6 3 1 5 -13 5 -14 0 -19 -2 -12 -5z"/>
    <path d="M3020 4007 c8 -8 144 -57 148 -53 2 2 -21 13 -50 24 -69 25 -104 36
-98 29z"/>
    <path d="M3969 3993 c-13 -15 -12 -15 7 -5 12 6 25 8 29 4 5 -4 5 -1 1 6 -10
16 -21 15 -37 -5z"/>
    <path d="M4081 3988 c-1 -10 8 -32 19 -50 25 -41 25 -26 0 27 -10 22 -19 32
-19 23z"/>
    <path d="M1036 3956 c-6 -33 -4 -42 15 -60 23 -21 23 -21 6 0 -23 28 -21 50 6
70 13 10 16 14 5 11 -9 -3 -19 -1 -21 6 -2 7 -7 -6 -11 -27z"/>
    <path d="M1142 3958 c2 -17 9 -33 16 -34 7 -1 8 0 2 3 -12 5 -14 53 -2 53 4 0
18 -7 30 -16 12 -8 22 -11 22 -6 0 9 -43 32 -61 32 -6 0 -9 -14 -7 -32z"/>
    <path d="M3928 3973 c7 -3 16 -2 19 1 4 3 -2 6 -13 5 -11 0 -14 -3 -6 -6z"/>
    <path d="M4374 3905 c77 -94 196 -290 266 -438 60 -128 132 -335 164 -477 14
-58 25 -95 25 -83 2 42 -68 292 -114 409 -91 231 -243 494 -355 614 -42 46
-40 41 14 -25z"/>
    <path d="M1772 3948 c-14 -14 -16 -38 -3 -38 6 0 13 5 17 11 3 6 14 9 24 6 12
-3 17 1 16 12 -3 20 -37 26 -54 9z"/>
    <path d="M3960 3934 c-7 -8 -19 -13 -27 -10 -8 4 -11 1 -7 -5 3 -6 -6 -24 -21
-39 l-28 -29 57 -66 c32 -36 60 -65 63 -65 3 0 -21 30 -52 66 l-58 66 26 26
27 26 33 -32 c18 -18 37 -32 42 -32 4 0 -9 15 -31 34 -31 28 -37 37 -27 47 10
10 18 8 41 -14 l28 -27 27 28 c15 15 27 32 27 36 0 5 -9 -3 -21 -18 -26 -33
-42 -33 -67 -1 -17 22 -21 23 -32 9z"/>
    <path d="M1229 3833 c-196 -201 -301 -341 -349 -468 -17 -46 -2 -26 24 31 14
31 47 88 73 128 53 79 254 309 328 374 26 23 44 42 39 42 -5 0 -57 -48 -115
-107z"/>
    <path d="M2950 3925 c0 -5 5 -17 10 -25 5 -8 10 -10 10 -5 0 6 -5 17 -10 25
-5 8 -10 11 -10 5z"/>
    <path d="M1320 3863 l-55 -58 58 55 c31 30 57 56 57 57 0 8 -10 -1 -60 -54z"/>
    <path d="M4075 3848 l-50 -53 53 50 c28 27 52 51 52 52 0 8 -9 -1 -55 -49z"/>
    <path d="M2972 3850 c0 -19 2 -27 5 -17 2 9 2 25 0 35 -3 9 -5 1 -5 -18z"/>
    <path d="M792 3790 c-80 -101 -165 -244 -191 -323 -31 -89 -24 -95 7 -7 35 95
107 216 194 325 37 47 64 85 60 85 -4 0 -35 -36 -70 -80z"/>
    <path d="M1000 3863 c1 -9 50 -47 54 -41 2 1 -10 13 -25 26 -16 13 -29 20 -29
15z"/>
    <path d="M4136 3845 c-36 -34 -33 -43 5 -11 17 14 34 26 38 26 12 0 111 -118
111 -133 0 -6 -108 -77 -117 -77 -5 0 -30 29 -58 64 -27 36 -52 63 -54 60 -2
-2 22 -35 54 -74 l57 -70 61 43 c34 24 62 48 64 53 5 17 -96 144 -115 144 -11
0 -31 -11 -46 -25z"/>
    <path d="M1073 3774 c-43 -47 -80 -90 -81 -95 -4 -9 -49 18 -90 55 l-22 20 32
33 c26 26 29 36 19 46 -10 10 -11 9 -6 -3 3 -10 -6 -27 -25 -45 -16 -16 -30
-32 -30 -36 0 -5 26 -26 59 -48 l58 -40 69 77 c37 42 77 87 88 100 11 12 17
22 13 22 -3 0 -41 -39 -84 -86z"/>
    <path d="M3300 3857 c0 -3 12 -12 26 -22 15 -9 23 -12 20 -6 -7 11 -46 35 -46
28z"/>
    <path d="M855 3784 c-19 -26 -35 -50 -35 -55 0 -7 91 -83 118 -98 11 -6 6 -21
-25 -67 -22 -32 -48 -74 -59 -91 -10 -18 -23 -33 -29 -33 -15 1 -118 73 -123
87 -2 6 7 22 19 34 12 12 15 19 8 17 -16 -5 -59 -65 -59 -82 0 -6 4 -5 9 3 7
11 23 5 82 -32 l72 -45 62 97 c34 53 64 102 68 107 3 6 0 11 -7 11 -14 0 -126
83 -126 94 0 3 16 27 35 53 20 25 34 46 31 46 -3 0 -21 -21 -41 -46z"/>
    <path d="M4145 3800 c-17 -19 -17 -21 9 -55 30 -39 30 -39 57 -25 26 14 24 33
-7 69 -30 36 -35 37 -59 11z m56 -21 c20 -28 20 -32 6 -47 -15 -14 -18 -13
-36 9 -24 28 -26 40 -9 57 16 16 13 17 39 -19z"/>
    <path d="M3986 3790 c5 -8 40 -58 79 -110 38 -52 83 -116 98 -142 15 -27 30
-48 33 -48 9 0 -35 71 -103 167 -63 88 -121 161 -107 133z"/>
    <path d="M3430 3770 c14 -12 54 -45 89 -73 59 -48 221 -222 221 -238 0 -3 -18
-9 -41 -13 -38 -6 -139 -51 -139 -61 0 -3 21 5 48 19 44 22 64 28 137 41 17 3
55 12 85 20 42 11 45 13 15 9 -22 -3 -52 -8 -66 -11 -21 -4 -31 2 -59 39 -50
65 -157 174 -225 227 -62 49 -109 79 -65 41z"/>
    <path d="M1164 3701 c-32 -44 -66 -81 -74 -83 -11 -2 -12 -6 -3 -11 7 -4 36
24 78 79 36 47 65 88 62 90 -2 2 -30 -32 -63 -75z"/>
    <path d="M4283 3649 c-73 -60 -82 -72 -63 -84 6 -3 10 3 10 14 0 26 20 38 31
19 4 -8 18 -26 30 -39 l21 -24 -16 25 c-38 59 -38 55 14 99 27 22 52 41 57 41
4 0 14 -9 21 -21 11 -18 11 -24 -2 -38 -21 -24 -20 -37 1 -16 15 15 18 16 27
2 6 -8 17 -24 24 -34 7 -10 -2 11 -21 47 -19 36 -40 66 -48 67 -8 1 -47 -25
-86 -58z"/>
    <path d="M808 3652 l53 -50 -20 -41 c-15 -28 -26 -39 -36 -35 -19 7 -19 8 0
44 9 17 13 30 11 30 -3 0 -13 -14 -21 -31 -13 -24 -14 -34 -4 -45 6 -8 15 -14
20 -14 14 0 61 80 56 94 -3 7 -29 32 -59 55 l-53 43 53 -50z"/>
    <path d="M3180 3668 c3 -3 46 -33 95 -66 82 -55 189 -155 274 -257 l33 -40
-28 40 c-83 118 -218 242 -327 300 -29 16 -50 26 -47 23z"/>
    <path d="M4081 3565 c10 -25 74 -125 81 -125 4 0 -10 28 -32 62 -40 61 -56 82
-49 63z"/>
    <path d="M4451 3564 c-1 -6 -40 -29 -87 -53 -47 -23 -84 -45 -81 -48 3 -3 44
15 91 40 l84 45 33 -74 c17 -41 34 -72 36 -70 3 2 -13 42 -35 88 -22 45 -41
78 -41 72z"/>
    <path d="M1025 3493 c-88 -140 -203 -416 -219 -528 -4 -22 5 0 19 50 46 163
121 329 220 493 39 63 22 51 -20 -15z"/>
    <path d="M3015 3477 c28 -14 86 -50 129 -81 44 -32 102 -72 130 -90 110 -71
217 -211 246 -323 l10 -38 -5 40 c-12 102 -114 240 -244 328 -42 28 -103 71
-136 95 -65 48 -115 76 -155 86 -14 3 -2 -4 25 -17z"/>
    <path d="M4420 3477 c0 -2 13 -28 30 -58 30 -55 38 -93 20 -102 -6 -3 -5 -4 2
-3 24 5 19 44 -12 105 -26 52 -40 72 -40 58z"/>
    <path d="M681 3418 c-13 -16 -22 -30 -20 -32 2 -2 14 -9 27 -15 26 -14 30 -4
5 15 -17 12 -17 14 -1 30 15 16 18 15 47 -5 36 -26 35 -22 16 -68 -8 -19 -15
-41 -14 -47 0 -12 38 74 38 89 0 6 -16 22 -37 36 l-37 26 -24 -29z"/>
    <path d="M4348 3428 c-16 -5 -28 -13 -28 -16 1 -14 70 -146 70 -134 0 7 -14
39 -30 72 -17 33 -27 60 -22 60 4 0 17 7 28 15 22 17 19 17 -18 3z"/>
    <path d="M1500 3400 c8 -5 20 -10 25 -10 6 0 3 5 -5 10 -8 5 -19 10 -25 10 -5
0 -3 -5 5 -10z"/>
    <path d="M4237 3294 c30 -64 61 -133 69 -153 11 -29 13 -30 9 -7 -6 31 -120
276 -129 276 -2 0 20 -52 51 -116z"/>
    <path d="M4404 3385 c-11 -8 -14 -15 -6 -15 6 0 12 -6 12 -14 0 -8 9 -24 20
-37 l21 -24 -21 42 c-19 40 -19 43 -2 52 9 6 12 11 6 11 -5 0 -19 -7 -30 -15z"/>
    <path d="M4530 3386 c0 -3 7 -23 15 -43 18 -44 19 -63 2 -63 -7 0 -22 -7 -33
-15 -17 -13 -15 -13 17 0 l37 14 26 -67 c37 -94 25 -47 -18 72 -33 91 -46 120
-46 102z"/>
    <path d="M636 3300 c-15 -42 -22 -50 -37 -45 -31 10 -22 -2 10 -13 23 -8 29
-8 25 2 -7 17 31 98 41 88 5 -4 5 -1 1 6 -13 22 -22 13 -40 -38z"/>
    <path d="M521 3319 c0 -15 7 -33 17 -40 15 -12 16 -12 5 1 -6 8 -13 26 -16 40
l-4 25 -2 -26z"/>
    <path d="M821 3324 c0 -11 3 -14 6 -6 3 7 2 16 -1 19 -3 4 -6 -2 -5 -13z"/>
    <path d="M690 3276 c-6 -20 -19 -40 -28 -46 -16 -9 -16 -9 -1 -10 16 0 56 77
45 87 -2 2 -9 -12 -16 -31z"/>
    <path d="M1022 3196 c-35 -96 -76 -291 -69 -333 3 -25 4 -24 6 7 2 60 48 262
75 334 15 38 24 71 22 73 -2 2 -18 -34 -34 -81z"/>
    <path d="M3926 3255 c4 -8 1 -22 -6 -30 -7 -9 -8 -15 -2 -15 11 0 22 23 22 46
0 8 -4 14 -10 14 -5 0 -7 -7 -4 -15z"/>
    <path d="M816 3252 c-35 -57 -137 -416 -135 -477 0 -16 7 2 14 40 18 99 59
246 99 353 30 82 37 108 22 84z"/>
    <path d="M4400 3240 c-25 -11 -39 -19 -31 -19 22 -1 81 22 81 31 0 4 -1 8 -2
7 -2 -1 -23 -9 -48 -19z"/>
    <path d="M4631 3244 c0 -11 3 -14 6 -6 3 7 2 16 -1 19 -3 4 -6 -2 -5 -13z"/>
    <path d="M500 3235 c0 -7 52 -32 126 -60 88 -33 71 -18 -21 20 -38 15 -74 32
-79 37 -11 9 -26 11 -26 3z"/>
    <path d="M4521 3210 c6 -19 16 -39 21 -45 5 -5 3 6 -3 25 -6 19 -16 39 -21 45
-5 5 -3 -6 3 -25z"/>
    <path d="M712 3205 c-17 -37 -14 -45 4 -12 9 16 14 31 11 33 -2 2 -9 -7 -15
-21z"/>
    <path d="M4456 3215 c-3 -9 -2 -14 3 -11 10 7 23 -22 16 -34 -3 -5 0 -12 6
-16 9 -5 10 2 5 27 -8 41 -21 56 -30 34z"/>
    <path d="M3637 3145 c15 -30 29 -53 31 -51 4 5 -46 106 -53 106 -3 0 7 -25 22
-55z"/>
    <path d="M4403 3193 c-13 -3 -23 -12 -23 -21 0 -10 3 -13 8 -7 4 6 18 16 32
22 26 12 21 13 -17 6z"/>
    <path d="M469 3123 c-6 -32 -15 -86 -18 -120 l-7 -63 53 -15 c69 -20 113 -29
113 -22 0 3 -34 13 -75 23 l-75 18 0 42 c0 24 7 75 15 115 9 40 13 74 11 76
-2 3 -10 -22 -17 -54z"/>
    <path d="M521 3098 c-24 -82 -25 -94 -11 -103 6 -3 7 1 4 9 -3 9 4 48 16 87
11 39 19 73 17 75 -2 2 -14 -28 -26 -68z"/>
    <path d="M1060 3155 c-6 -8 -10 -22 -7 -32 4 -14 5 -13 6 5 1 13 10 26 24 32
15 6 17 9 6 9 -9 1 -22 -6 -29 -14z"/>
    <path d="M1093 3126 c-38 -36 -74 -108 -72 -140 0 -6 9 14 20 43 13 37 33 67
61 93 23 21 40 39 37 42 -2 2 -23 -15 -46 -38z"/>
    <path d="M4390 3148 c1 -14 59 -180 59 -171 1 16 -49 173 -54 173 -3 0 -5 -1
-5 -2z"/>
    <path d="M4336 3120 c10 -38 32 -87 32 -70 0 8 -8 33 -19 55 -10 22 -16 29
-13 15z"/>
    <path d="M580 3110 c-6 -11 -8 -20 -6 -20 3 0 10 9 16 20 6 11 8 20 6 20 -3 0
-10 -9 -16 -20z"/>
    <path d="M4271 3105 c0 -5 6 -35 14 -65 7 -30 13 -44 13 -30 0 24 -25 115 -27
95z"/>
    <path d="M4513 3098 c-21 -7 -33 -17 -33 -29 0 -29 11 -49 27 -49 21 0 125 31
120 36 -2 2 -27 -3 -56 -12 -59 -17 -81 -14 -81 14 0 13 13 25 38 35 42 17 33
20 -15 5z"/>
    <path d="M3981 3085 c0 -5 8 -39 19 -75 10 -36 19 -56 19 -45 0 21 -36 137
-38 120z"/>
    <path d="M4331 3065 c0 -5 6 -32 13 -60 8 -27 14 -41 14 -30 0 21 -25 107 -27
90z"/>
    <path d="M4645 3043 c4 -16 15 -66 25 -113 10 -47 19 -74 19 -61 1 28 -38 201
-46 201 -3 0 -2 -12 2 -27z"/>
    <path d="M556 3026 c-4 -19 -12 -37 -19 -39 -7 -3 -5 -6 5 -6 12 -1 19 10 24
34 6 33 26 46 39 26 3 -5 -1 -28 -9 -50 -7 -23 -10 -41 -6 -41 14 0 30 83 18
97 -20 25 -45 15 -52 -21z"/>
    <path d="M4371 3025 c0 -5 11 -48 25 -95 13 -47 22 -68 19 -47 -6 40 -43 159
-44 142z"/>
    <path d="M666 2994 c-4 -14 -5 -28 -3 -31 3 -2 8 8 11 23 4 14 5 28 3 31 -3 2
-8 -8 -11 -23z"/>
    <path d="M4550 2985 c-25 -7 -36 -13 -25 -14 11 -1 35 3 53 8 37 11 34 16 58
-115 11 -67 13 -70 9 -22 -8 86 -25 158 -38 157 -7 -1 -32 -7 -57 -14z"/>
    <path d="M341 2964 c0 -11 3 -14 6 -6 3 7 2 16 -1 19 -3 4 -6 -2 -5 -13z"/>
    <path d="M4231 2964 c0 -11 3 -14 6 -6 3 7 2 16 -1 19 -3 4 -6 -2 -5 -13z"/>
    <path d="M4275 2969 c-4 -5 -1 -8 5 -7 7 2 21 -19 31 -47 11 -27 17 -39 14
-25 -3 14 -8 37 -11 52 -7 28 -29 44 -39 27z"/>
    <path d="M1011 2954 c0 -11 3 -14 6 -6 3 7 2 16 -1 19 -3 4 -6 -2 -5 -13z"/>
    <path d="M3476 2957 c3 -10 9 -15 12 -12 3 3 0 11 -7 18 -10 9 -11 8 -5 -6z"/>
    <path d="M4451 2944 c0 -11 3 -14 6 -6 3 7 2 16 -1 19 -3 4 -6 -2 -5 -13z"/>
    <path d="M640 2900 c-7 -28 -10 -53 -8 -55 3 -3 10 18 16 47 7 28 11 53 8 55
-2 2 -9 -19 -16 -47z"/>
    <path d="M842 2930 c0 -14 2 -19 5 -12 2 6 2 18 0 25 -3 6 -5 1 -5 -13z"/>
    <path d="M4361 2934 c0 -11 3 -14 6 -6 3 7 2 16 -1 19 -3 4 -6 -2 -5 -13z"/>
    <path d="M4022 2925 c0 -11 4 -33 8 -50 7 -27 8 -27 8 -5 0 14 -4 36 -8 50 -6
20 -8 21 -8 5z"/>
    <path d="M4246 2900 c3 -25 9 -76 14 -115 5 -38 10 -153 10 -253 0 -147 -4
-204 -21 -285 -36 -178 -93 -321 -199 -497 -28 -47 -42 -76 -31 -65 30 30 133
222 170 317 19 45 45 128 60 183 25 96 26 110 25 360 0 205 -4 275 -17 330
-11 48 -15 56 -11 25z"/>
    <path d="M4525 2925 l-30 -14 30 6 c17 3 39 10 50 14 l20 8 -20 0 c-11 0 -33
-6 -50 -14z"/>
    <path d="M1001 2914 c0 -11 3 -14 6 -6 3 7 2 16 -1 19 -3 4 -6 -2 -5 -13z"/>
    <path d="M3491 2930 c-1 -3 9 -30 20 -60 18 -45 22 -78 23 -185 1 -71 -2 -148
-6 -170 -7 -34 -6 -36 3 -15 17 37 23 236 10 300 -10 47 -48 145 -50 130z"/>
    <path d="M295 2850 c-4 -39 -5 -73 -2 -76 2 -3 8 27 11 67 4 39 5 73 3 76 -3
2 -8 -28 -12 -67z"/>
    <path d="M4462 2905 c0 -11 4 -31 8 -45 6 -20 8 -21 8 -5 0 11 -4 31 -8 45 -6
20 -8 21 -8 5z"/>
    <path d="M4372 2885 c0 -16 2 -22 5 -12 2 9 2 23 0 30 -3 6 -5 -1 -5 -18z"/>
    <path d="M235 2860 c-4 -23 -5 -43 -2 -46 2 -3 7 14 11 37 4 23 5 44 2 46 -2
2 -7 -14 -11 -37z"/>
    <path d="M832 2875 c0 -16 2 -22 5 -12 2 9 2 23 0 30 -3 6 -5 -1 -5 -18z"/>
    <path d="M4575 2891 c-6 -5 -19 -11 -30 -13 -17 -3 -19 -8 -14 -43 l6 -40 2
36 c1 30 5 38 26 43 14 4 25 11 25 16 0 12 -3 13 -15 1z"/>
    <path d="M992 2870 c0 -14 2 -19 5 -12 2 6 2 18 0 25 -3 6 -5 1 -5 -13z"/>
    <path d="M520 2860 c41 -11 76 -17 78 -15 5 5 -62 22 -113 29 -22 3 -6 -3 35
-14z"/>
    <path d="M4831 2864 c0 -11 3 -14 6 -6 3 7 2 16 -1 19 -3 4 -6 -2 -5 -13z"/>
    <path d="M355 2745 c-4 -58 -5 -108 -3 -111 3 -2 8 43 12 102 4 58 5 108 3
111 -3 2 -8 -43 -12 -102z"/>
    <path d="M4383 2815 c0 -22 2 -30 4 -17 2 12 2 30 0 40 -3 9 -5 -1 -4 -23z"/>
    <path d="M816 2785 c-3 -30 -8 -108 -10 -172 -4 -124 -3 -116 14 91 11 129 8
184 -4 81z"/>
    <path d="M982 2820 c0 -14 2 -19 5 -12 2 6 2 18 0 25 -3 6 -5 1 -5 -13z"/>
    <path d="M4042 2810 c0 -19 2 -27 5 -17 2 9 2 25 0 35 -3 9 -5 1 -5 -18z"/>
    <path d="M4422 2815 c0 -16 2 -22 5 -12 2 9 2 23 0 30 -3 6 -5 -1 -5 -18z"/>
    <path d="M4691 2809 c0 -19 4 -52 9 -74 7 -31 7 -24 3 30 -6 74 -13 101 -12
44z"/>
    <path d="M468 2815 c23 -8 64 -16 90 -19 37 -5 31 -2 -28 14 -85 22 -128 25
-62 5z"/>
    <path d="M616 2793 c-3 -21 -5 -56 -5 -78 1 -26 5 -14 10 34 9 79 6 108 -5 44z"/>
    <path d="M943 2780 c0 -30 2 -43 4 -27 2 15 2 39 0 55 -2 15 -4 2 -4 -28z"/>
    <path d="M4482 2810 c0 -14 2 -19 5 -12 2 6 2 18 0 25 -3 6 -5 1 -5 -13z"/>
    <path d="M217 2750 c-4 -30 -6 -77 -6 -105 1 -33 5 -18 10 45 10 104 6 148 -4
60z"/>
    <path d="M4432 2750 c0 -19 2 -27 5 -17 2 9 2 25 0 35 -3 9 -5 1 -5 -18z"/>
    <path d="M4575 2764 c-33 -7 -67 -11 -75 -8 -11 4 -12 2 -4 -5 11 -12 115 3
144 20 19 11 8 10 -65 -7z"/>
    <path d="M4847 2713 c2 -39 9 -114 13 -165 8 -88 8 -86 3 27 -3 66 -9 140 -13
165 -7 35 -8 30 -3 -27z"/>
    <path d="M416 2748 c-3 -13 -6 -78 -6 -146 l0 -124 68 7 c37 4 69 10 72 13 3
2 -26 2 -64 -1 l-68 -6 4 139 c2 77 3 140 2 140 -1 0 -4 -10 -8 -22z"/>
    <path d="M732 2740 c0 -19 2 -27 5 -17 2 9 2 25 0 35 -3 9 -5 1 -5 -18z"/>
    <path d="M4053 2725 c0 -27 2 -38 4 -22 2 15 2 37 0 50 -2 12 -4 0 -4 -28z"/>
    <path d="M275 2638 c-4 -68 -5 -134 -3 -148 2 -14 7 40 11 119 5 79 6 145 4
148 -3 2 -8 -51 -12 -119z"/>
    <path d="M4394 2650 c0 -63 1 -89 3 -57 2 31 2 83 0 115 -2 31 -3 5 -3 -58z"/>
    <path d="M462 2678 c1 -46 3 -58 5 -33 3 22 10 43 16 47 9 6 9 8 0 8 -7 0 -13
9 -13 21 0 19 4 20 58 15 40 -4 48 -3 27 3 -16 5 -45 9 -62 10 l-33 1 2 -72z"/>
    <path d="M673 2695 c0 -27 2 -38 4 -22 2 15 2 37 0 50 -2 12 -4 0 -4 -28z"/>
    <path d="M4638 2725 c-3 -3 -36 -12 -74 -19 -38 -8 -59 -15 -47 -15 33 -1 122
19 129 30 6 10 1 12 -8 4z"/>
    <path d="M527 2683 c21 -4 22 -11 26 -91 l3 -87 2 93 2 92 -27 -1 c-24 -2 -24
-2 -6 -6z"/>
    <path d="M718 2523 c2 -87 7 -187 11 -223 5 -37 6 26 3 145 -2 116 -8 216 -11
223 -4 7 -5 -59 -3 -145z"/>
    <path d="M604 2555 c0 -66 1 -92 3 -57 2 34 2 88 0 120 -2 31 -3 3 -3 -63z"/>
    <path d="M4323 2590 c0 -41 2 -58 4 -37 2 20 2 54 0 75 -2 20 -4 3 -4 -38z"/>
    <path d="M4583 2646 c-40 -7 -76 -15 -79 -19 -4 -4 6 -5 22 -2 16 4 65 12 109
19 44 8 67 14 50 14 -16 0 -62 -6 -102 -12z"/>
    <path d="M506 2597 c-8 -55 -10 -59 -32 -54 -13 2 -24 0 -24 -5 0 -5 12 -8 27
-6 23 2 29 9 35 43 5 22 7 49 5 60 -2 11 -7 -6 -11 -38z"/>
    <path d="M664 2525 c0 -66 1 -92 3 -57 2 34 2 88 0 120 -2 31 -3 3 -3 -63z"/>
    <path d="M4433 2550 c0 -47 2 -66 4 -42 2 23 2 61 0 85 -2 23 -4 4 -4 -43z"/>
    <path d="M758 2614 c-5 -4 -8 -21 -8 -38 0 -21 3 -27 11 -19 6 6 9 23 7 38 -2
15 -6 23 -10 19z"/>
    <path d="M343 2535 c0 -44 2 -61 4 -37 2 23 2 59 0 80 -2 20 -4 1 -4 -43z"/>
    <path d="M4712 2510 c-3 -160 3 -151 -111 -148 l-96 3 -6 50 -6 50 1 -55 1
-55 107 -3 107 -3 6 33 c3 18 4 78 3 133 l-4 100 -2 -105z"/>
    <path d="M4560 2590 c-41 -6 -42 -7 -10 -8 19 0 53 3 75 7 33 7 35 9 10 8 -16
0 -50 -3 -75 -7z"/>
    <path d="M704 2480 c0 -63 1 -89 3 -57 2 31 2 83 0 115 -2 31 -3 5 -3 -58z"/>
    <path d="M4503 2525 c0 -33 2 -45 4 -27 2 18 2 45 0 60 -2 15 -4 0 -4 -33z"/>
    <path d="M826 2541 c-4 -5 3 -7 14 -4 23 6 26 13 6 13 -8 0 -17 -4 -20 -9z"/>
    <path d="M4554 2526 c-3 -8 -4 -25 -1 -38 3 -17 5 -15 6 10 1 31 2 32 47 32
l46 0 -4 -60 c-1 -32 1 -55 5 -51 5 4 7 32 5 62 l-3 54 -48 3 c-35 2 -49 -1
-53 -12z"/>
    <path d="M4588 2445 c-2 -19 0 -35 4 -35 4 0 8 16 8 35 0 19 -2 35 -4 35 -2 0
-6 -16 -8 -35z"/>
    <path d="M812 2390 c-5 -241 99 -586 238 -790 57 -83 60 -75 4 11 -134 207
-217 472 -234 749 l-7 115 -1 -85z"/>
    <path d="M3773 2435 c0 -22 2 -30 4 -17 2 12 2 30 0 40 -3 9 -5 -1 -4 -23z"/>
    <path d="M350 2438 c0 -14 -8 -18 -33 -18 -19 0 -36 -2 -39 -5 -2 -3 1 -59 9
-125 43 -403 180 -777 380 -1039 55 -73 37 -38 -42 81 -128 192 -206 371 -270
626 -29 113 -65 342 -65 410 0 40 2 42 29 42 l28 0 7 -87 c4 -49 14 -117 21
-153 15 -67 14 -49 -5 95 -5 39 -10 89 -10 113 l0 42 53 1 c28 1 79 5 112 9
43 6 28 7 -49 3 -85 -4 -110 -3 -117 8 -7 11 -9 10 -9 -3z"/>
    <path d="M4423 2400 c0 -30 2 -43 4 -27 2 15 2 39 0 55 -2 15 -4 2 -4 -28z"/>
    <path d="M4733 2325 c0 -44 2 -61 4 -37 2 23 2 59 0 80 -2 20 -4 1 -4 -43z"/>
    <path d="M606 2340 c3 -30 9 -84 14 -120 8 -56 8 -52 3 29 -3 51 -9 105 -13
120 -6 17 -7 8 -4 -29z"/>
    <path d="M3762 2365 c0 -16 2 -22 5 -12 2 9 2 23 0 30 -3 6 -5 -1 -5 -18z"/>
    <path d="M4042 2360 c0 -19 2 -27 5 -17 2 9 2 25 0 35 -3 9 -5 1 -5 -18z"/>
    <path d="M460 2367 c-30 -5 -50 -11 -45 -13 6 -2 42 2 80 10 39 7 59 14 45 14
-14 0 -50 -5 -80 -11z"/>
    <path d="M673 2330 c0 -30 2 -43 4 -27 2 15 2 39 0 55 -2 15 -4 2 -4 -28z"/>
    <path d="M481 2309 c-22 -9 -23 -13 -18 -59 3 -28 9 -55 12 -60 8 -13 45 -13
65 0 10 6 4 8 -21 4 -35 -6 -36 -5 -42 32 -11 67 -9 71 31 82 20 5 28 10 17
10 -11 1 -31 -4 -44 -9z"/>
    <path d="M4032 2300 c0 -14 2 -19 5 -12 2 6 2 18 0 25 -3 6 -5 1 -5 -13z"/>
    <path d="M4848 2230 c-19 -247 -101 -527 -232 -787 -25 -51 -44 -93 -41 -93 8
0 103 195 145 299 78 193 147 510 138 631 -2 31 -5 16 -10 -50z"/>
    <path d="M4494 2295 c-4 -9 -4 -19 0 -22 3 -4 6 0 6 9 0 15 -1 15 150 -7 23
-4 30 -2 20 4 -8 5 -42 12 -75 15 -33 4 -68 9 -78 12 -10 3 -20 -1 -23 -11z"/>
    <path d="M4424 2242 c-1 -44 0 -50 6 -27 10 41 12 85 3 85 -5 0 -9 -26 -9 -58z"/>
    <path d="M422 2250 c0 -25 6 -67 14 -95 11 -43 12 -45 7 -10 -3 22 -9 65 -13
95 -7 55 -7 55 -8 10z"/>
    <path d="M4401 2274 c0 -11 3 -14 6 -6 3 7 2 16 -1 19 -3 4 -6 -2 -5 -13z"/>
    <path d="M682 2240 c0 -19 2 -27 5 -17 2 9 2 25 0 35 -3 9 -5 1 -5 -18z"/>
    <path d="M4471 2194 c-6 -37 -10 -68 -8 -71 3 -2 10 26 17 62 7 36 10 68 8 70
-3 3 -10 -25 -17 -61z"/>
    <path d="M4522 2195 c-7 -38 -16 -80 -19 -92 -4 -20 2 -24 67 -44 39 -12 73
-19 76 -17 8 9 34 159 33 191 -1 18 -7 -5 -14 -49 -7 -45 -15 -93 -19 -107
l-6 -26 -58 16 c-31 9 -60 19 -64 22 -4 3 0 37 8 76 8 38 13 76 12 85 -2 8 -9
-16 -16 -55z"/>
    <path d="M862 2235 c0 -11 3 -29 8 -40 11 -25 11 1 0 35 -6 20 -8 21 -8 5z"/>
    <path d="M4382 2190 c-16 -76 -72 -223 -113 -296 -33 -59 -39 -84 -9 -39 51
77 146 341 138 383 -2 9 -9 -13 -16 -48z"/>
    <path d="M4588 2243 c17 -3 22 -11 22 -37 0 -64 -10 -94 -30 -89 -15 4 -17 10
-10 29 5 13 6 24 1 24 -8 0 -25 -50 -19 -55 2 -1 15 -5 30 -9 25 -6 27 -4 33
37 11 72 4 102 -25 103 -22 1 -22 0 -2 -3z"/>
    <path d="M4716 2184 c-4 -31 -5 -59 -2 -61 2 -3 8 21 11 52 4 31 5 58 3 61 -3
2 -8 -21 -12 -52z"/>
    <path d="M562 2210 c0 -14 2 -19 5 -12 2 6 2 18 0 25 -3 6 -5 1 -5 -13z"/>
    <path d="M743 2180 c0 -30 2 -43 4 -27 2 15 2 39 0 55 -2 15 -4 2 -4 -28z"/>
    <path d="M4291 2194 c0 -11 3 -14 6 -6 3 7 2 16 -1 19 -3 4 -6 -2 -5 -13z"/>
    <path d="M4402 2128 c-7 -28 -11 -53 -8 -55 2 -2 9 19 16 47 7 28 10 53 8 55
-3 3 -10 -18 -16 -47z"/>
    <path d="M571 2159 c-1 -10 -17 -19 -48 -26 l-48 -10 49 1 c45 1 50 -1 57 -24
5 -19 7 -20 7 -5 0 27 -15 84 -17 64z"/>
    <path d="M4276 2144 c-4 -14 -5 -28 -3 -31 3 -2 8 8 11 23 4 14 5 28 3 31 -3
2 -8 -8 -11 -23z"/>
    <path d="M685 2125 c6 -50 25 -118 31 -113 2 3 -5 38 -16 79 -12 41 -18 56
-15 34z"/>
    <path d="M632 2125 c0 -16 2 -22 5 -12 2 9 2 23 0 30 -3 6 -5 -1 -5 -18z"/>
    <path d="M4436 2035 c-10 -42 -29 -111 -42 -153 -13 -42 -22 -78 -20 -80 10
-9 90 280 84 299 -2 6 -12 -23 -22 -66z"/>
    <path d="M4701 2094 c0 -11 3 -14 6 -6 3 7 2 16 -1 19 -3 4 -6 -2 -5 -13z"/>
    <path d="M392 2080 c0 -14 2 -19 5 -12 2 6 2 18 0 25 -3 6 -5 1 -5 -13z"/>
    <path d="M505 2079 c-17 -7 -18 -8 -2 -8 10 -1 22 -11 27 -23 8 -21 9 -21 9
-3 1 31 -11 43 -34 34z"/>
    <path d="M641 2080 c-1 -19 41 -162 46 -157 2 3 -8 42 -21 88 -14 46 -25 77
-25 69z"/>
    <path d="M3676 2065 c-9 -26 -7 -32 5 -12 6 10 9 21 6 23 -2 3 -7 -2 -11 -11z"/>
    <path d="M463 2064 c-9 -4 -8 -18 4 -57 8 -29 16 -53 18 -55 1 -1 28 7 59 19
32 11 55 23 53 25 -2 3 -27 -4 -55 -15 l-50 -20 -12 44 c-7 24 -9 48 -5 54 7
12 6 12 -12 5z"/>
    <path d="M4223 1986 c-17 -44 -30 -82 -29 -84 6 -5 68 148 64 157 -2 5 -17
-28 -35 -73z"/>
    <path d="M4362 1993 c-15 -48 -8 -55 8 -8 7 20 10 38 8 41 -3 2 -10 -13 -16
-33z"/>
    <path d="M4480 2027 c7 -8 192 -59 196 -54 3 2 -28 13 -68 25 -91 27 -134 36
-128 29z"/>
    <path d="M411 2010 c0 -8 6 -37 13 -65 8 -27 15 -43 15 -35 0 8 -6 38 -13 65
-8 28 -15 43 -15 35z"/>
    <path d="M3646 1993 c-6 -14 -5 -15 5 -6 7 7 10 15 7 18 -3 3 -9 -2 -12 -12z"/>
    <path d="M721 1990 c0 -8 4 -22 9 -30 12 -18 12 -2 0 25 -6 13 -9 15 -9 5z"/>
    <path d="M4540 1963 c8 -3 34 -14 58 -24 23 -10 42 -15 42 -10 0 8 -88 42
-105 40 -5 0 -3 -3 5 -6z"/>
    <path d="M4661 1911 c-9 -37 -16 -49 -25 -42 -17 14 -125 53 -137 49 -5 -2 22
-14 60 -28 57 -19 71 -28 71 -45 0 -15 2 -17 9 -6 7 11 10 10 14 -5 3 -12 5
-8 6 12 0 17 6 45 12 62 6 17 9 37 7 43 -2 6 -10 -12 -17 -40z"/>
    <path d="M555 1914 c-62 -23 -66 -37 -5 -16 85 29 88 30 65 31 -11 0 -38 -7
-60 -15z"/>
    <path d="M690 1899 c0 -9 13 -49 30 -89 16 -40 27 -77 23 -84 -4 -7 -2 -8 5
-1 8 7 1 35 -23 100 -19 50 -34 83 -35 74z"/>
    <path d="M4317 1870 c-8 -22 -13 -40 -11 -40 7 0 36 71 31 76 -2 2 -11 -14
-20 -36z"/>
    <path d="M441 1884 c-2 -25 83 -282 112 -339 33 -67 67 -118 73 -112 3 2 -11
27 -30 55 -37 56 -68 132 -120 297 -19 61 -35 105 -35 99z"/>
    <path d="M4172 1865 c-17 -37 -14 -45 4 -12 9 16 14 31 11 33 -2 2 -9 -7 -15
-21z"/>
    <path d="M4460 1877 c0 -10 20 -22 51 -32 29 -10 49 -22 46 -29 -2 -6 -7 -22
-11 -36 -5 -21 -3 -20 9 5 21 45 19 51 -25 64 -21 6 -46 18 -55 27 -13 13 -15
14 -15 1z"/>
    <path d="M630 1877 c0 -2 9 -29 19 -59 15 -42 16 -59 8 -68 -9 -8 -8 -10 6 -4
10 3 16 12 14 18 -2 6 -12 35 -21 64 -15 43 -26 65 -26 49z"/>
    <path d="M552 1849 c-13 -5 -28 -7 -32 -4 -12 8 7 -56 21 -69 9 -8 9 -5 0 11
-16 32 -14 38 22 56 35 17 27 22 -11 6z"/>
    <path d="M4436 1814 c-9 -24 -2 -26 12 -4 7 11 8 20 3 20 -5 0 -12 -7 -15 -16z"/>
    <path d="M597 1799 c4 -13 8 -18 11 -10 2 7 -1 18 -6 23 -8 8 -9 4 -5 -13z"/>
    <path d="M4478 1813 c15 -6 15 -14 2 -48 -9 -23 -13 -25 -25 -15 -8 7 -15 8
-15 4 0 -5 10 -15 23 -23 12 -8 32 -21 45 -29 14 -9 22 -10 22 -3 0 6 -6 11
-14 11 -28 0 -37 25 -21 63 13 31 13 36 -1 41 -9 3 -19 6 -22 5 -4 0 -1 -3 6
-6z"/>
    <path d="M4222 1758 c-10 -18 -40 -69 -66 -114 -27 -48 -79 -115 -126 -164
-44 -46 -80 -88 -80 -93 0 -10 58 53 88 95 7 10 19 18 27 18 14 0 86 109 148
223 37 69 44 93 9 35z"/>
    <path d="M4275 1760 c-9 -16 -13 -30 -11 -30 3 0 12 14 21 30 9 17 13 30 11
30 -3 0 -12 -13 -21 -30z"/>
    <path d="M4356 1775 c-9 -26 -7 -32 5 -12 6 10 9 21 6 23 -2 3 -7 -2 -11 -11z"/>
    <path d="M4594 1730 c-11 -33 -17 -57 -13 -54 9 5 43 104 37 109 -2 2 -13 -23
-24 -55z"/>
    <path d="M598 1724 c-39 -21 -35 -28 5 -8 37 19 44 24 31 24 -5 -1 -21 -8 -36
-16z"/>
    <path d="M4340 1731 c0 -5 15 -15 34 -21 50 -16 62 -34 42 -62 -17 -24 -21
-39 -8 -36 4 1 16 -3 27 -9 18 -10 21 -9 22 10 2 17 0 19 -7 7 -7 -11 -12 -12
-20 -4 -9 9 -8 19 3 41 l16 29 -55 27 c-30 15 -54 23 -54 18z"/>
    <path d="M693 1702 c-37 -19 -45 -60 -16 -83 15 -13 15 -12 5 8 -14 26 -16 53
-3 53 10 0 27 -39 23 -52 -1 -5 3 -8 8 -8 13 0 12 10 -5 40 -13 23 -12 27 8
42 27 22 22 22 -20 0z"/>
    <path d="M4462 1660 c0 -14 2 -19 5 -12 2 6 2 18 0 25 -3 6 -5 1 -5 -13z"/>
    <path d="M560 1646 c0 -13 60 -125 70 -131 6 -4 -6 24 -27 62 -40 75 -43 79
-43 69z"/>
    <path d="M4575 1640 c3 -5 8 -10 11 -10 2 0 4 5 4 10 0 6 -5 10 -11 10 -5 0
-7 -4 -4 -10z"/>
    <path d="M4565 1598 c-4 -13 -20 -49 -35 -80 -15 -31 -25 -60 -22 -63 3 -3 21
31 40 76 18 44 31 83 29 86 -3 2 -8 -6 -12 -19z"/>
    <path d="M4390 1590 c0 -5 9 -14 20 -20 11 -6 20 -9 20 -8 0 2 -9 11 -20 21
-11 9 -20 13 -20 7z"/>
    <path d="M4360 1526 c0 -7 76 -56 87 -56 10 0 -7 14 -49 39 -21 13 -38 20 -38
17z"/>
    <path d="M683 1484 c-24 -14 -43 -28 -43 -31 0 -4 85 42 99 53 16 14 -22 -1
-56 -22z"/>
    <path d="M4230 1398 c-13 -18 -35 -49 -48 -68 -23 -32 -22 -32 11 5 34 38 72
95 64 95 -2 0 -14 -15 -27 -32z"/>
    <path d="M3981 1366 l-44 -51 48 47 c27 26 47 49 45 52 -3 2 -25 -19 -49 -48z"/>
    <path d="M690 1393 c-14 -9 -27 -18 -29 -19 -5 -4 33 -63 69 -109 43 -55 37
-31 -8 29 -56 74 -55 72 -19 95 17 11 27 21 22 21 -6 0 -22 -8 -35 -17z"/>
    <path d="M839 1335 c16 -30 51 -71 51 -60 0 6 -14 26 -30 45 -17 19 -26 26
-21 15z"/>
    <path d="M4377 1262 c-21 -31 -45 -68 -55 -82 -9 -13 -11 -21 -4 -16 17 10
115 156 105 156 -4 0 -25 -26 -46 -58z"/>
    <path d="M4522 1255 c-12 -25 -20 -45 -17 -45 7 0 47 81 43 86 -3 2 -14 -17
-26 -41z"/>
    <path d="M4220 1286 c0 -2 19 -16 42 -32 60 -41 68 -46 68 -40 0 5 -98 76
-105 76 -3 0 -5 -2 -5 -4z"/>
    <path d="M4485 1189 c-4 -6 -5 -12 -2 -15 2 -3 7 2 10 11 7 17 1 20 -8 4z"/>
    <path d="M706 1168 c4 -7 15 -22 24 -33 10 -11 25 -33 33 -50 10 -17 16 -23
17 -14 0 15 -65 109 -76 109 -3 0 -2 -6 2 -12z"/>
  </g>
</svg>